<svg width="76" height="76" viewBox="0 0 76 76" fill="none" xmlns="http://www.w3.org/2000/svg">
<g clip-path="url(#clip0_1747_2297)">
<path fill-rule="evenodd" clip-rule="evenodd" d="M18.1165 37.1989C16.163 37.4261 14.2471 37.9051 12.4165 38.6239C11.1347 39.1081 9.93771 39.7921 8.86984 40.6506C7.55868 41.6354 6.55838 42.9765 5.98817 44.5139C5.98817 45.6223 6.17817 46.6989 8.01484 47.0473C8.17504 47.0845 8.34107 47.0893 8.50317 47.0615C8.66527 47.0337 8.82019 46.9738 8.95883 46.8853C9.09746 46.7968 9.21703 46.6815 9.3105 46.5462C9.40398 46.4109 9.46948 46.2582 9.50317 46.0973C9.69317 45.3373 8.45817 44.3873 10.5798 42.9306C11.6854 42.1123 12.9299 41.5007 14.2532 41.1256C15.6338 40.7414 17.0377 40.4986 18.4648 40.3973C20.6868 40.2437 22.8935 40.8628 24.7113 42.1497C26.5291 43.4366 27.8463 45.3122 28.4398 47.4589C29.1716 49.4565 29.1688 51.6493 28.432 53.6451C27.6952 55.6408 26.2724 57.3094 24.4182 58.3523C22.5095 59.2191 20.4 59.5476 18.3181 59.302C16.2362 59.0564 14.2611 58.2461 12.6065 56.9589C10.6808 55.888 8.9921 54.438 7.64233 52.6963C6.29257 50.9547 5.30973 48.9576 4.75317 46.8256C3.77469 40.2228 4.77758 33.4781 7.63484 27.4456C10.3696 21.2573 14.5508 15.8163 19.8265 11.5806C20.0035 11.4765 20.1565 11.3363 20.2755 11.1689C20.3944 11.0016 20.4767 10.811 20.5168 10.6097C20.557 10.4084 20.5541 10.2008 20.5084 10.0007C20.4627 9.8005 20.3753 9.61226 20.2517 9.44828C20.1282 9.28431 19.9714 9.1483 19.7916 9.04918C19.6118 8.95006 19.4131 8.89006 19.2085 8.87313C19.0039 8.85619 18.798 8.8827 18.6043 8.95091C18.4107 9.01912 18.2337 9.12749 18.0848 9.26893C12.2107 13.6652 7.46722 19.3965 4.2465 25.9889C0.80559 32.6565 -0.593276 40.1906 0.224835 47.6489C0.834416 50.4639 2.02532 53.1204 3.72123 55.4483C5.41715 57.7762 7.58067 59.7242 10.0732 61.1674C12.5077 62.9016 15.3796 63.9187 18.3629 64.1034C21.3462 64.2881 24.3216 63.633 26.9515 62.2124C29.6339 60.579 31.6481 58.0451 32.6343 55.0634C33.6204 52.0817 33.5143 48.8464 32.3348 45.9358C31.3335 43.0646 29.372 40.6271 26.7815 39.0347C24.191 37.4424 21.1304 36.796 18.1165 37.1989ZM72.2317 41.1256C70.9344 39.6642 69.2739 38.5717 67.4183 37.9589C64.869 37.1548 62.206 36.7697 59.5333 36.8189C57.6797 36.7108 55.8286 37.0702 54.15 37.8639C52.5429 38.6308 51.1261 39.7448 50.0017 41.1256C49.8302 41.3029 49.7142 41.5265 49.668 41.7688C49.6217 42.0111 49.6473 42.2616 49.7414 42.4897C49.8356 42.7177 49.9943 42.9132 50.198 43.0523C50.4018 43.1914 50.6417 43.2679 50.8883 43.2726C51.2215 43.2695 51.5401 43.1353 51.775 42.8989C52.7092 41.8159 53.8492 40.9356 55.1317 40.3023C56.4427 39.8019 57.855 39.6183 59.2483 39.7639C61.5623 39.8296 63.8506 40.268 66.025 41.0623C67.2695 41.5911 68.3588 42.4303 69.1917 43.5006C70.2859 45.1154 71.0289 46.942 71.3726 48.8621C71.7163 50.7823 71.6529 52.7532 71.1867 54.6473C71.0311 56.4058 70.3122 58.0671 69.137 59.3844C67.9617 60.7018 66.3928 61.6047 64.6633 61.9591C60.3171 62.879 55.7836 62.0969 51.9967 59.7741C50.3569 58.3431 49.0297 56.5894 48.098 54.6225C47.1663 52.6556 46.6501 50.5177 46.5817 48.3424C46.094 42.6203 46.9933 36.8633 49.21 31.5623C51.403 26.0227 54.3666 20.8203 58.0133 16.1089C58.2453 15.8054 58.3488 15.4228 58.3014 15.0438C58.254 14.6647 58.0596 14.3194 57.76 14.0823C57.4616 13.8521 57.0841 13.7495 56.7102 13.797C56.3363 13.8445 55.9964 14.0381 55.765 14.3356C50.9989 20.0856 47.2505 26.6078 44.6817 33.6206C42.9091 38.4384 42.1439 43.5686 42.4333 48.6939C42.4681 51.5164 43.1014 54.2995 44.2914 56.8591C45.4814 59.4187 47.201 61.6967 49.3367 63.5424C51.6784 65.1014 54.3045 66.1835 57.0648 66.7269C59.8251 67.2702 62.6654 67.2642 65.4233 66.7091C67.6279 66.375 69.6919 65.4204 71.3742 63.9568C73.0564 62.4933 74.2874 60.5812 74.9233 58.4441C75.9597 55.5622 76.2563 52.4663 75.786 49.4401C75.3158 46.4138 74.0937 43.554 72.2317 41.1224" fill="#FF8C00"/>
</g>
<defs>
<clipPath id="clip0_1747_2297">
<rect width="76" height="76" fill="white"/>
</clipPath>
</defs>
</svg>
