<svg width="76" height="76" viewBox="0 0 76 76" fill="none" xmlns="http://www.w3.org/2000/svg">
<g clip-path="url(#clip0_1747_2299)">
<path fill-rule="evenodd" clip-rule="evenodd" d="M57.8835 38.8011C59.837 38.5739 61.7529 38.0949 63.5835 37.3761C64.8652 36.8919 66.0623 36.2079 67.1301 35.3494C68.4413 34.3646 69.4416 33.0235 70.0118 31.4861C70.0118 30.3777 69.8218 29.3011 67.9851 28.9527C67.8249 28.9155 67.6589 28.9107 67.4968 28.9385C67.3347 28.9663 67.1798 29.0262 67.0412 29.1147C66.9025 29.2032 66.783 29.3185 66.6895 29.4538C66.596 29.5891 66.5305 29.7418 66.4968 29.9027C66.3068 30.6627 67.5418 31.6127 65.4201 33.0694C64.3146 33.8877 63.0701 34.4993 61.7468 34.8744C60.3661 35.2586 58.9623 35.5014 57.5351 35.6027C55.3132 35.7563 53.1065 35.1372 51.2887 33.8503C49.4708 32.5634 48.1536 30.6878 47.5601 28.5411C46.8284 26.5435 46.8312 24.3507 47.568 22.3549C48.3048 20.3592 49.7276 18.6906 51.5818 17.6477C53.4905 16.7809 55.6 16.4524 57.6819 16.698C59.7638 16.9436 61.7389 17.7539 63.3935 19.0411C65.3192 20.112 67.0079 21.562 68.3577 23.3037C69.7074 25.0453 70.6903 27.0424 71.2468 29.1744C72.2253 35.7772 71.2224 42.5219 68.3651 48.5544C65.6304 54.7427 61.4492 60.1837 56.1735 64.4194C55.9965 64.5235 55.8435 64.6637 55.7245 64.8311C55.6056 64.9984 55.5233 65.189 55.4831 65.3903C55.443 65.5916 55.4459 65.7992 55.4915 65.9993C55.5372 66.1995 55.6247 66.3877 55.7483 66.5517C55.8718 66.7157 56.0286 66.8517 56.2084 66.9508C56.3882 67.0499 56.5869 67.1099 56.7915 67.1269C56.9961 67.1438 57.202 67.1173 57.3956 67.0491C57.5893 66.9809 57.7663 66.8725 57.9151 66.7311C63.7893 62.3348 68.5328 56.6035 71.7535 50.0111C75.1944 43.3435 76.5933 35.8094 75.7751 28.3511C75.1656 25.5361 73.9747 22.8796 72.2788 20.5517C70.5828 18.2238 68.4193 16.2758 65.9268 14.8326C63.4923 13.0984 60.6204 12.0813 57.6371 11.8966C54.6537 11.7119 51.6784 12.367 49.0485 13.7876C46.3661 15.421 44.3519 17.9549 43.3657 20.9366C42.3795 23.9183 42.4857 27.1536 43.6651 30.0642C44.6665 32.9354 46.628 35.3729 49.2185 36.9653C51.8089 38.5576 54.8696 39.204 57.8835 38.8011ZM3.76832 34.8744C5.06555 36.3358 6.7261 37.4283 8.58165 38.0411C11.131 38.8452 13.7939 39.2303 16.4667 39.1811C18.3203 39.2892 20.1714 38.9298 21.85 38.1361C23.4571 37.3692 24.8739 36.2552 25.9983 34.8744C26.1698 34.6971 26.2858 34.4735 26.332 34.2312C26.3782 33.9889 26.3527 33.7384 26.2585 33.5103C26.1644 33.2823 26.0057 33.0868 25.802 32.9477C25.5982 32.8086 25.3583 32.7321 25.1117 32.7274C24.7785 32.7305 24.4599 32.8647 24.225 33.1011C23.2908 34.1841 22.1508 35.0644 20.8683 35.6977C19.5573 36.1981 18.145 36.3817 16.7517 36.2361C14.4377 36.1704 12.1494 35.732 9.97498 34.9377C8.73048 34.4089 7.64115 33.5697 6.80832 32.4994C5.71405 30.8846 4.97104 29.058 4.62738 27.1379C4.28372 25.2177 4.34707 23.2468 4.81332 21.3527C4.96892 19.5942 5.68776 17.9329 6.86302 16.6156C8.03828 15.2982 9.60721 14.3953 11.3366 14.0409C15.6829 13.121 20.2164 13.9031 24.0033 16.2259C25.6431 17.6569 26.9703 19.4106 27.902 21.3775C28.8337 23.3444 29.3499 25.4823 29.4183 27.6576C29.906 33.3797 29.0066 39.1367 26.79 44.4377C24.597 49.9773 21.6333 55.1797 17.9867 59.8911C17.7547 60.1946 17.6512 60.5772 17.6986 60.9562C17.746 61.3353 17.9404 61.6806 18.24 61.9177C18.5384 62.1479 18.9159 62.2505 19.2898 62.203C19.6637 62.1555 20.0035 61.9619 20.235 61.6644C25.0011 55.9144 28.7495 49.3922 31.3183 42.3794C33.0909 37.5616 33.8561 32.4314 33.5667 27.3061C33.5319 24.4836 32.8986 21.7005 31.7086 19.1409C30.5186 16.5813 28.799 14.3033 26.6633 12.4576C24.3215 10.8986 21.6954 9.81647 18.9352 9.27311C16.1749 8.72975 13.3346 8.7358 10.5767 9.2909C8.37206 9.62502 6.30807 10.5796 4.62583 12.0432C2.9436 13.5067 1.71259 15.4188 1.07665 17.5559C0.040329 20.4378 -0.256287 23.5337 0.213974 26.5599C0.684227 29.5862 1.90633 32.446 3.76832 34.8776" fill="#FF8C00"/>
</g>
<defs>
<clipPath id="clip0_1747_2299">
<rect width="76" height="76" fill="white" transform="matrix(-1 0 0 -1 76 76)"/>
</clipPath>
</defs>
</svg>
