<svg width="200" height="200" viewBox="0 0 200 200" fill="none" xmlns="http://www.w3.org/2000/svg">
<path d="M10.417 94.1667C10.417 45.3042 50.8337 6.25 100 6.25C149.167 6.25 189.584 45.3042 189.584 94.1667V129.533C189.584 130.297 189.546 131.051 189.471 131.796C189.546 132.296 189.584 132.808 189.584 133.333C189.584 141.542 188.571 150.487 187.584 157.321C186.034 168.017 179.704 178.625 168.117 183.212C155.646 188.154 133.992 193.75 100 193.75C97.2377 193.75 94.5881 192.653 92.6346 190.699C90.6811 188.746 89.5837 186.096 89.5837 183.333C89.5837 180.571 90.6811 177.921 92.6346 175.968C94.5881 174.014 97.2377 172.917 100 172.917C131.68 172.917 150.688 167.708 160.446 163.846C163.621 162.588 166.238 159.358 166.963 154.337C167.055 153.701 167.145 153.054 167.234 152.396C161.375 153.7 154.609 154.958 147.88 155.663C139.038 156.592 130.417 151.262 128.805 141.662C127.863 136.079 127.084 128.025 127.084 116.662C127.084 105.308 127.863 97.2583 128.805 91.6708C130.417 82.0708 139.038 76.7417 147.88 77.6708C151.43 78.0417 154.992 78.5667 158.421 79.1708C151.638 54.1542 128.263 35.4167 100 35.4167C71.7378 35.4167 48.367 54.1542 41.5795 79.1708C45.0751 78.5496 48.591 78.0493 52.1212 77.6708C60.9628 76.7417 69.5837 82.0708 71.2003 91.6708C72.1378 97.2542 72.917 105.308 72.917 116.667C72.917 128.025 72.1378 136.075 71.2003 141.662C69.5837 151.262 60.9628 156.592 52.1212 155.663C42.9628 154.704 33.7462 152.725 26.8295 150.996C16.8295 148.492 10.417 139.425 10.417 129.537V94.1667Z" fill="white"/>
</svg>
