<svg width="76" height="11" viewBox="0 0 76 11" fill="none" xmlns="http://www.w3.org/2000/svg">
<path d="M67.6609 6.03608C67.8985 6.23125 67.1871 6.17907 67.6917 6.45012C67.5991 6.48571 67.5059 6.5221 67.4133 6.55769C67.3721 6.43744 67.3304 6.31757 67.2893 6.19731C67.4129 6.1434 67.5366 6.08948 67.6608 6.03547C67.6608 6.03567 67.6609 6.03587 67.6609 6.03608ZM67.6254 4.46465C67.5557 4.83315 67.1941 4.97816 67.6429 5.24825C67.6585 5.12291 67.6749 4.99749 67.6906 4.87216C67.8438 4.94682 67.9978 5.02135 68.1509 5.0955C68.1952 5.0425 68.2393 4.98946 68.2835 4.93697C68.3765 5.13839 68.469 5.34045 68.562 5.54238C68.5007 5.51941 68.4386 5.496 68.3773 5.47302C68.1749 5.67448 67.9804 5.74854 67.6784 5.82211C67.7121 5.86817 67.7458 5.91379 67.7794 5.95985C67.6124 5.89647 67.4454 5.83286 67.279 5.76938C67.4022 5.66801 67.54 5.55516 67.654 5.46077C67.4097 5.15841 67.0829 5.38979 66.9092 5.4835C66.6726 5.61132 66.7076 5.44694 66.5316 5.53776C66.5034 5.55204 66.5168 5.67533 66.4587 5.68537C66.1654 5.73528 65.5843 5.74821 65.8799 5.41597C66.3698 5.38676 66.752 5.10021 67.2392 5.11942C67.0682 4.80518 67.3034 4.65824 67.6254 4.46465ZM58.8612 6.73464C58.9862 6.55365 59.2943 6.57779 59.5123 6.66187C59.5125 6.66183 59.5128 6.6618 59.513 6.66177C59.561 6.6803 59.6912 6.88042 59.5443 6.89157C59.3048 6.90901 59.1441 6.58796 59.0506 6.83354C58.989 6.79859 58.9253 6.76872 58.8612 6.73464ZM58.3478 6.82498C58.1908 6.7623 58.2223 6.49957 58.4141 6.54337C58.4141 6.54316 58.414 6.54296 58.414 6.54276C58.494 6.56109 58.372 6.78201 58.6172 6.54124C58.6945 6.69199 58.7691 6.82858 58.845 6.97429C58.7785 6.98597 58.7182 6.99844 58.6483 7.01005C58.66 6.74332 58.5046 6.88701 58.3478 6.82498ZM65.6533 5.59285C65.6623 5.83015 65.758 5.81559 65.9435 5.95581C65.7883 5.96914 65.633 5.98197 65.4784 5.99521C65.5369 5.8609 65.5948 5.72716 65.6533 5.59285ZM69.2804 5.1352C69.2807 5.13517 69.2809 5.13513 69.2811 5.1351C69.3266 5.0913 69.3722 5.04734 69.4171 5.00414C69.4587 5.0836 69.4999 5.16274 69.5415 5.2422C69.7093 5.13941 69.878 5.03651 70.0457 4.93321C70.0589 5.19145 69.7328 5.1936 69.5806 5.39609C69.3077 5.35496 69.161 5.22403 69.1145 5.01C69.1696 5.05155 69.2247 5.09373 69.2804 5.1352ZM34.6047 5.71198C34.6072 5.6186 34.609 5.52565 34.6114 5.43227C34.5285 5.45687 34.4509 5.48709 34.3643 5.50805C34.3933 5.88242 34.2062 5.68039 34.0021 5.86819C33.3765 6.44419 33.8534 6.68009 32.814 6.60721C33.3153 6.24919 32.9234 6.13773 33.0533 5.70646C33.2348 5.81041 33.222 6.38262 33.4734 6.29818C33.6798 5.86935 33.8822 5.46184 34.1708 5.0606C34.139 5.04303 34.1071 5.02532 34.0752 5.00774C34.0295 5.07147 33.9844 5.13491 33.9387 5.19864C33.9461 5.07744 33.9525 4.95801 33.9602 4.83518C34.0062 5.06012 34.1431 4.80438 34.2619 5.01003C34.3148 5.10158 34.3134 5.28843 34.3214 5.40986C34.4955 5.34019 34.6703 5.26408 34.8449 5.19195C34.8235 5.31571 34.8023 5.43948 34.7814 5.56282C34.7231 5.6128 34.6647 5.66184 34.6064 5.71182C34.6058 5.71187 34.6053 5.71193 34.6047 5.71198ZM4.61543 4.40234C4.84325 4.15913 5.25723 4.11889 5.47511 4.38952C5.18836 4.39366 4.90218 4.3982 4.61543 4.40234ZM69.073 4.83394C69.1042 4.87142 69.1345 4.90857 69.1656 4.94605C69.0631 5.0373 68.9599 5.12812 68.8574 5.21937C68.8196 5.10394 68.7813 4.98855 68.7429 4.87372C68.8527 4.86032 68.9633 4.84734 69.073 4.83394ZM61.8717 5.95021C61.9533 5.93179 61.9612 5.93468 62.0663 5.93755C62.0661 5.93746 62.066 5.93738 62.0659 5.93729C62.1075 5.93804 62.4579 5.96069 62.4323 6.05702C62.2632 6.08165 62.0825 6.10473 61.9092 6.12835C61.8958 6.06911 61.8865 6.00979 61.8717 5.95021ZM63.8718 5.73169C63.872 5.73186 63.8723 5.73203 63.8725 5.7322C63.9361 5.73764 63.9983 5.75787 64.0626 5.75433C63.8532 5.929 63.7819 5.67657 63.5838 5.77773C63.3859 5.8794 63.2767 6.03893 63.0522 5.7104C63.1106 5.64865 63.1709 5.56346 63.2301 5.49272C63.5446 5.59344 63.606 5.44992 63.8239 5.2787C63.8398 5.43005 63.8558 5.58034 63.8718 5.73169ZM31.2058 7.50919C31.2713 7.68213 31.1138 7.58702 31.1074 7.58951C31.1074 7.58928 31.1073 7.58905 31.1073 7.58882C30.8152 8.03114 31.0977 7.47176 30.7088 7.74775C30.7367 7.66916 30.7621 7.58938 30.7891 7.51081C30.9269 7.50924 31.0743 7.51437 31.2058 7.50919ZM46.2998 7.97542C46.3113 8.02555 46.3237 8.07567 46.3352 8.12581C46.0502 8.15267 46.0051 8.36234 45.7448 8.21248C45.9297 8.13296 46.1147 8.05382 46.2997 7.97481C46.2997 7.97501 46.2997 7.97522 46.2998 7.97542ZM60.3927 5.77586C60.6938 5.63609 60.9204 5.56169 61.2432 5.67434C61.2435 5.67451 61.2438 5.67468 61.244 5.67485C61.2627 5.68195 61.193 5.79962 61.2194 5.82327C61.2795 5.7989 61.3405 5.76571 61.4008 5.73817C61.4209 5.82204 61.4407 5.90596 61.4607 5.98932C61.2803 5.98938 61.0998 5.98948 60.9187 5.98963C60.9517 6.03578 60.9853 6.08142 61.0183 6.12757C60.8709 6.17378 60.7241 6.21981 60.5767 6.26602C60.6102 6.11946 60.6435 5.97288 60.6762 5.82589C60.5817 5.80902 60.4872 5.79324 60.3927 5.77586ZM41.5049 8.0635C41.5623 8.11207 41.4826 8.21753 41.5666 8.25466C41.6504 8.29118 41.7791 8.16838 41.767 8.32928C41.6656 8.3645 41.5594 8.40352 41.4562 8.44003C41.8364 8.67533 42.1427 8.37372 42.1954 8.72112C41.855 8.67563 41.591 8.75433 41.2866 8.89403C41.262 8.61591 41.5471 8.33367 41.3117 8.10154C41.3755 8.08919 41.4423 8.07474 41.5043 8.0642C41.5045 8.06396 41.5047 8.06373 41.5049 8.0635ZM73.1924 0.742706C73.3895 0.737241 73.8191 0.563784 74.0865 0.691311C74.1522 0.722753 74.4235 1.20926 74.4317 1.27714C74.4569 1.5061 74.2155 1.57065 74.4988 1.68346C74.4106 1.69707 74.3258 1.71735 74.2385 1.73343C74.2752 1.88458 74.3117 2.03534 74.3476 2.18607C74.4514 2.14842 74.5554 2.11062 74.6591 2.07246C74.6713 2.1225 74.6834 2.17266 74.6956 2.2227C74.3112 2.27616 74.5649 2.44112 74.3904 2.65085C74.5866 2.71807 74.7842 2.78466 74.9798 2.85197C74.8727 2.85509 74.7469 2.86374 74.6519 2.86311C74.6749 3.12474 74.8887 3.03245 74.9333 3.07543C75.185 3.3184 74.074 3.32996 74.0361 3.72043C74.2164 3.73867 74.4051 3.75472 74.5892 3.7719C74.5444 3.82554 74.4989 3.87929 74.4541 3.93293C74.0137 3.72722 73.5471 3.6967 73.0532 3.59853C73.0121 3.61509 72.9709 3.63196 72.9303 3.64793C72.9588 3.7636 72.9865 3.87891 73.015 3.99457C72.9526 4.01719 72.8893 4.0398 72.8269 4.06241C72.9638 3.65001 72.702 3.69108 72.3529 3.49846C72.503 3.33962 72.7222 3.39362 72.6733 3.14246C72.1212 3.41611 71.406 3.23332 70.873 3.52994C70.7407 3.60333 70.7857 3.92979 70.453 3.94448C70.4593 3.90707 70.4523 3.84201 70.4531 3.79386C69.9062 4.02773 69.5742 4.16822 68.9619 4.0893C69.012 4.202 69.0616 4.31527 69.1117 4.42798C69.2291 4.35244 69.3465 4.27594 69.4632 4.20049C69.5749 4.38265 69.4605 4.48536 69.8342 4.43232C70.1405 4.38899 69.9464 4.3283 70.0219 4.25951C70.124 4.16573 70.2441 4.30644 70.3535 4.20228C70.4382 4.12232 70.3149 3.97626 70.5651 3.98339C70.495 4.20395 70.4237 4.43153 70.3532 4.65474C70.2872 4.61623 70.2214 4.57693 70.1553 4.53791C70.2081 4.4743 70.26 4.41156 70.3128 4.34796C70.1138 4.4764 69.9257 4.59761 69.72 4.73063C69.7507 4.42145 69.5388 4.56469 69.4202 4.61689C69.2356 4.69841 69.3722 4.46989 69.2509 4.52141C69.1297 4.57347 69.0252 4.82223 68.7908 4.80405C68.8946 4.65413 68.7123 4.55724 68.7276 4.42984C68.743 4.30243 68.9801 4.24235 68.7305 4.13964C68.2995 4.30233 68.8461 4.70503 68.556 4.8219C68.2076 4.96237 68.0176 4.21036 68.1027 4.03152C68.1698 3.89077 68.4646 3.87704 68.5323 3.73671C67.979 3.5756 68.037 4.03471 67.96 4.1366C67.6804 4.50737 67.7793 3.60604 67.4384 3.97366C67.4234 3.80967 67.4093 3.66227 67.3952 3.50495C67.333 3.54372 67.2944 3.58923 67.2176 3.62371C67.4969 3.90913 67.3019 3.92186 67.2028 3.93587C67.0468 3.95819 67.3091 4.08021 67.2733 4.12584C67.1763 4.24807 66.9933 4.22353 67.1206 4.3487C67.0631 4.29021 67.0016 4.23208 66.9429 4.17427C66.7715 4.28029 66.4355 5.01909 66.8249 4.82605C66.8213 5.08401 66.6727 4.98052 66.5644 4.95612C66.4562 4.93175 66.4801 5.09246 66.3855 5.07507C66.0091 5.00523 66.2071 4.69774 66.2348 4.47411C65.7794 4.68765 66.2585 4.72252 65.5865 4.91545C65.5443 5.10035 65.8866 5.24481 65.6367 5.3823C65.5464 5.08341 65.3223 4.89042 64.9299 4.84054C64.9027 4.91579 64.8757 4.99165 64.8486 5.06691C64.6034 4.8131 64.6691 4.50546 64.3342 4.90729C64.4518 4.23584 64.3668 4.66674 63.9885 4.45149C63.9118 4.40816 64.0543 4.25275 63.948 4.19831C63.8998 4.17379 63.8066 4.28914 63.6885 4.22599C63.6308 4.1947 63.3515 3.98006 63.1977 4.12107C63.3648 4.4158 63.0781 4.72503 63.3902 4.94517C62.8697 4.95138 62.5319 5.1499 63.0474 4.64665C62.9046 4.57003 62.7618 4.49382 62.6191 4.41771C62.5387 4.5044 62.4574 4.59062 62.3763 4.67689C62.3276 4.42256 62.3316 4.3488 61.981 4.44251C62.1275 4.36093 62.2733 4.27844 62.4204 4.19626C62.4186 4.14381 62.4329 4.08708 62.4209 4.03759C62.2439 4.16195 61.7136 4.2774 61.593 4.36329C61.4724 4.4492 61.7258 4.43365 61.6975 4.50489C61.4602 5.09279 61.4301 4.68716 61.2192 4.81126C61.0955 4.88453 61.4171 4.90193 61.3501 4.93509C61.1015 5.05703 60.9413 4.78363 60.7099 4.81141C60.8144 4.96476 60.9185 5.12076 61.0212 5.27591C60.7778 5.30021 60.5077 5.33556 60.2899 5.41906C60.2043 5.45172 60.2878 5.56499 60.2745 5.57515C60.2086 5.62696 59.9264 5.73328 59.8956 5.73799C59.6636 5.77063 59.6339 5.60205 59.407 5.62353C59.4936 5.5971 59.5751 5.57281 59.6598 5.54717C59.6617 5.26702 59.6644 4.98678 59.6662 4.70611C59.4424 4.71627 59.2186 4.72685 58.9941 4.7371C59.1686 4.80676 59.3437 4.87591 59.5183 4.94557C59.2953 5.2021 59.0724 5.45915 58.8494 5.71619C58.699 5.5978 58.549 5.47937 58.3985 5.36098C58.0453 5.44579 58.1929 5.98955 57.9568 5.52777C57.8568 5.58317 57.7568 5.63854 57.6567 5.69343C57.6624 5.62218 57.6678 5.55081 57.6735 5.47956C57.552 5.53947 57.4305 5.5991 57.3091 5.65952C57.4764 5.88632 57.6427 6.1263 57.8077 6.3461C57.5645 6.43351 57.5313 6.22628 57.4869 6.17949C57.369 6.0556 57.1976 6.26776 57.1016 6.15134C57.069 6.11132 57.2958 5.94099 57.1897 5.79469C57.169 5.76635 56.7612 5.23097 56.5698 5.39353C56.588 5.49811 56.6218 5.62477 56.6459 5.73795C56.3726 5.84025 56.1539 5.31122 56.1704 5.15233C56.0348 5.28048 55.8164 5.31943 55.8085 5.4918C55.7323 5.50637 55.6566 5.52065 55.5804 5.53522C55.6045 5.11475 55.2946 5.2333 55.3216 5.58838C55.4547 5.57911 55.588 5.57028 55.721 5.56101C55.6802 6.00631 56.1165 6.21223 55.228 5.92606C55.0379 5.72323 55.5156 5.91801 55.3628 5.76755C55.1237 5.70045 54.923 5.81124 54.6871 5.68413C54.3935 5.52521 54.6964 5.29254 54.1083 5.62602C55.5652 6.06186 53.9775 6.0725 53.3594 6.35365C53.0984 5.76254 52.5276 5.64187 51.8032 5.9271C51.9047 6.08769 52.1284 5.96731 52.2719 6.00517C52.4154 6.04304 52.2823 6.16467 52.4624 6.22157C52.6425 6.27846 53.0168 6.33814 53.2047 6.43573C53.0728 6.55244 52.3878 6.87923 52.8238 6.53941C52.4471 6.41795 52.2573 6.26623 51.8148 6.29417C51.72 6.57918 51.7524 6.74419 51.3263 6.81013C51.5283 6.40451 51.0078 6.21272 51.0624 5.81469C51.3774 5.8627 51.259 6.25849 51.4585 6.41299C51.4789 6.42837 51.7483 6.29646 51.8148 6.29417C51.4844 5.99821 51.3689 5.88702 51.4898 5.46474C51.2931 5.52708 51.161 5.49415 51.1685 5.68687C51.1153 5.61008 51.0618 5.53324 51.0092 5.45636C50.944 5.46735 50.886 5.48304 50.8163 5.49098C50.9511 5.76487 50.7415 5.61353 50.6274 5.76159C50.5132 5.90981 50.7211 6.11218 50.3593 6.16465C50.4892 6.21535 50.6074 6.25793 50.7329 6.30558C50.5094 6.41125 50.2852 6.51749 50.0617 6.62316C50.2497 6.77611 50.6407 6.98806 50.6624 7.22005C50.543 7.14763 50.1953 7.35094 50.1558 7.36274C50.0029 7.40762 50.0681 7.25054 50.0558 7.24856C49.8008 7.21132 49.6055 7.28841 49.4823 7.08069C49.3115 7.20529 49.1647 7.16754 48.97 7.19983C48.8628 7.21758 48.9058 7.37663 48.8386 7.35449C48.3921 7.2065 48.7623 6.94289 48.0091 7.45128C48.1223 7.55073 48.2345 7.65295 48.3477 7.75343C48.2623 7.80843 48.1775 7.86358 48.0921 7.91857C48.0283 7.90638 47.965 7.89397 47.9012 7.88178C47.8691 7.63706 47.8373 7.39179 47.8052 7.14707C47.7365 7.14287 47.6675 7.13908 47.5988 7.13488C47.7103 7.09512 47.8222 7.05536 47.9337 7.0156C47.9383 6.97114 47.9422 6.92676 47.9469 6.8823C47.7672 6.83891 47.588 6.79484 47.4082 6.75094C47.4166 6.83645 47.425 6.92255 47.4333 7.00807C47.0327 6.94207 47.0137 6.8713 46.6802 7.15543C46.3983 7.19125 46.2176 7.57819 46.0753 7.75009C46.0104 7.71038 45.9454 7.67007 45.8798 7.63046C45.8521 7.70631 45.8239 7.78191 45.7961 7.85777C45.7086 7.76944 45.62 7.68124 45.5325 7.59343C45.5216 7.82249 45.5097 7.89516 45.8097 7.93414C45.7485 8.22553 45.2225 8.1724 45.0024 8.10736C44.8355 8.058 44.9784 7.80242 44.9549 7.77691C44.8761 7.69009 44.6281 7.80809 44.5715 7.79962C44.3322 7.76489 44.1724 7.79847 43.9574 7.77557C43.9155 7.77083 43.7823 7.63937 43.772 7.63607C43.6938 7.62115 43.4994 7.57493 43.4782 7.57574C42.3801 7.61379 43.6243 8.09327 42.6081 8.16346C42.6497 8.24338 42.6888 8.32308 42.7298 8.4031C42.6544 8.4186 42.5782 8.43395 42.5028 8.44945C42.3968 8.39236 42.496 8.24871 42.3185 8.37787C42.3169 8.27261 42.3153 8.16729 42.3143 8.06245C42.2386 8.1297 42.1658 8.19609 42.0882 8.26361C41.9053 7.92246 41.4055 7.90748 41.3827 7.48082C41.3749 7.33565 41.7013 7.1411 41.4973 7.01276C41.3444 7.00287 41.4685 7.16059 41.4091 7.17786C40.9793 7.30019 40.972 7.05639 40.8016 7.1449C40.7874 7.25175 40.7721 7.36081 40.7574 7.46876C40.6857 7.44774 40.6139 7.42674 40.5415 7.40581C40.5352 7.47717 40.5283 7.5487 40.5219 7.62006C40.5862 7.616 40.6585 7.6109 40.7176 7.60755C40.6727 7.88675 39.9413 8.10915 40.1953 7.8417C40.2988 7.73307 40.5168 7.74349 40.3392 7.4451C40.1453 7.51801 39.9246 7.59559 39.7202 7.66994C39.7044 7.60265 39.689 7.53516 39.6731 7.46787C39.3953 7.55072 39.6906 7.78816 39.71 7.93436C39.6456 7.94731 39.5805 7.95985 39.5161 7.97281C39.4796 7.91049 39.444 7.8449 39.4064 7.7848C39.4181 7.89031 39.4151 8.13967 39.2092 8.07533C39.0767 8.03325 39.2365 7.74125 39.0043 7.81039C39.0444 7.97201 39.1573 8.16011 38.9002 8.24898C38.8506 8.08135 38.793 7.92946 38.7481 7.75231C38.4418 7.9616 38.2562 7.71761 37.8965 7.96144C37.6683 8.11583 37.3916 8.59108 37.1432 7.95083C36.9618 7.95782 37.0411 8.11489 36.9932 8.15916C36.7671 8.3686 36.5383 8.08014 36.4892 8.06804C36.176 7.99023 36.0576 8.11703 35.7953 8.0019C35.8251 8.12265 35.8481 8.23767 35.8749 8.3557C36.0716 8.1419 36.1851 8.1352 36.5015 8.13227C36.4006 8.17109 36.2997 8.21049 36.1987 8.24932C36.2293 8.34644 36.2598 8.44359 36.2897 8.54028C37.1982 8.01739 37.0582 8.66688 36.2702 8.91221C36.1756 8.73766 36.0785 8.56395 35.9845 8.3888C35.5566 8.73123 35.3044 8.51901 34.7696 8.5329C34.7061 8.53481 34.4924 8.67194 34.3951 8.69054C34.3968 8.69102 34.3985 8.69151 34.4002 8.69199C34.3629 8.87409 34.4565 8.94281 34.4875 9.09679C34.437 9.12352 34.3865 9.15017 34.336 9.17689C34.2012 9.07467 34.2296 8.97173 33.9999 9.03177C34.0475 9.14539 34.0947 9.25909 34.1422 9.37271C33.8869 9.41171 33.7019 9.30643 33.4713 9.39429C33.5052 9.34422 33.5387 9.2941 33.5726 9.24403C33.0387 9.2009 33.3567 8.4514 33.012 8.84987C32.9789 8.79279 32.9463 8.73504 32.9131 8.67796C33.0725 8.64109 33.232 8.60466 33.3907 8.56787C33.3823 8.48183 33.3742 8.39613 33.3651 8.31018C33.1961 8.35935 33.0263 8.40943 32.8572 8.4586C32.9753 8.384 33.0942 8.30922 33.2124 8.23461C33.0067 8.22089 32.8009 8.20715 32.5952 8.19342C32.8506 8.47918 32.5804 8.55523 32.6747 8.85984C32.285 8.64873 31.96 8.3447 31.4406 8.63852C31.3377 8.69698 31.4266 8.90672 31.0814 8.68381C31.1425 8.85222 31.0815 8.9903 31.0173 9.12673L30.5551 9.18042L30.9201 8.90012C30.9052 8.75048 30.894 8.60057 30.7706 8.48653C30.7384 8.52115 30.705 8.55537 30.6717 8.5896L29.1718 9.74138L31.071 9.52075C31.1319 9.50452 31.1926 9.48809 31.2504 9.46892C31.1161 9.37078 31.0535 9.05895 31.2212 8.94101C31.4353 8.79066 31.8009 8.96283 31.7396 8.61562C31.8336 8.6195 31.9204 8.61753 32.0114 8.6192C31.9865 8.7108 31.9625 8.80285 31.9382 8.89436C32.1735 8.72399 32.339 8.74639 32.4908 8.94805C32.1952 9.03953 31.9002 9.13039 31.6045 9.22136C31.6511 9.23013 31.6983 9.23894 31.7448 9.2472C31.5462 9.50146 31.8113 9.68049 31.3906 9.78643C31.3793 9.68407 31.3675 9.58171 31.3561 9.47883C31.3051 9.60571 31.1967 9.68837 31.1043 9.76509L28.314 10.0892L30.5176 8.39704C30.5701 8.2479 30.604 8.1219 30.4307 8.03001C30.5929 8.0249 30.6519 8.05641 30.6027 7.8772C31.0204 7.85121 31.3822 7.95145 31.5139 8.31123C31.5767 8.18616 31.6394 8.06099 31.7017 7.93634C31.5822 7.90468 31.463 7.87344 31.3436 7.84179C31.5202 7.70846 31.698 7.57404 31.8737 7.44073C32.0738 7.65697 31.597 7.7763 31.8618 7.90088C31.9148 7.92594 31.9372 7.76338 31.9802 7.76704C32.4384 7.81194 31.8892 7.95407 32.1189 8.08558C32.5501 7.83801 32.5008 8.40579 32.8127 7.71226C32.8797 7.76734 32.9487 7.82293 33.0143 7.87844C33.201 7.73564 33.0664 7.5979 33.2014 7.44346C33.2861 7.34687 33.6203 7.51049 33.5862 7.24428C33.5793 7.19573 33.1389 7.02133 33.5358 6.72699C33.8438 6.49854 33.9008 6.82516 34.1269 6.77617C34.3531 6.72709 34.4716 6.11614 34.8662 6.38564C34.7436 6.40621 34.6152 6.46711 34.4901 6.50362C34.5074 6.60372 34.5251 6.70226 34.5427 6.80154C34.686 6.53974 34.993 6.46757 35.0052 6.18607C35.4949 6.20981 35.6278 5.71792 35.3121 5.50134C35.2506 5.61816 35.4532 5.66069 35.2584 5.68617C35.1916 5.63025 35.1243 5.57524 35.0575 5.51933C35.2874 5.34869 35.4411 5.2227 35.5018 5.50744C35.5403 5.48458 35.5785 5.46196 35.617 5.43909C35.5056 5.28704 35.393 5.13501 35.2815 4.98297C35.3096 4.93331 35.338 4.88364 35.3661 4.83398C35.438 4.82949 35.5102 4.82529 35.5829 4.82079C35.7065 5.10359 35.6061 5.19654 36.0629 5.0445C35.9996 4.96327 35.937 4.88196 35.8737 4.80073C36.2508 4.66674 36.4144 4.85529 36.7793 4.55147C36.7182 5.05817 36.1667 4.68778 36.6158 5.24699C36.515 5.26731 36.4133 5.2876 36.3125 5.30792C36.3666 5.39782 36.4209 5.48777 36.4755 5.57726C36.8244 5.22789 37.0336 4.18458 37.5735 4.33352C37.5699 4.26549 37.571 4.203 37.5654 4.13132C37.9877 4.14401 37.7123 3.5773 38.1884 3.64972C38.2379 3.65769 38.5435 4.15259 38.8625 3.87093C38.8073 3.81895 38.7241 3.72377 38.6582 3.65522C38.7589 3.63369 38.8604 3.61413 38.9612 3.59382C38.9546 3.57988 38.9481 3.56592 38.9416 3.55195L40.4934 2.23676L38.5 2.29316C38.4868 2.3475 38.4733 2.4019 38.4604 2.45663C38.4736 2.4589 38.4868 2.46117 38.5 2.46344L40.0132 2.42062L38.8352 3.41898C38.7076 3.48945 38.58 3.55947 38.4523 3.63002C38.5393 3.52998 38.6269 3.42938 38.7139 3.32934C38.5103 3.34717 38.4496 3.39417 38.4163 3.18836C38.4611 3.14676 38.5059 3.10504 38.5506 3.06331L38.7286 2.91246L38.5 2.91893C38.4132 2.9255 38.3265 2.9321 38.2398 2.93848C38.2246 2.98499 38.2095 3.03204 38.1943 3.07855C38.2658 3.21722 38.338 3.35283 38.4095 3.49357C38.0248 3.38025 37.6903 3.3741 37.3949 3.10144C37.3446 3.05539 37.5226 2.87473 37.1797 3.03766C37.1744 2.94198 37.1652 2.86428 37.1592 2.77583C36.7393 3.04388 36.6014 2.96387 36.1637 2.77034C36.4471 2.95093 36.1942 2.83348 36.122 2.93024C36.0726 2.99691 36.2656 2.98706 36.2438 3.05688C36.2219 3.12622 35.9711 3.40619 36.1855 3.43986C36.7114 2.86599 36.8546 3.5521 37.5301 3.27629C37.4261 3.35029 37.3214 3.42445 37.2174 3.49845C37.2664 3.5486 37.3102 3.59411 37.3632 3.64737C36.9864 3.5351 37.1697 3.60804 37.0149 3.6965C36.8599 3.78499 36.5783 3.86016 36.3895 3.88448C36.3301 3.89212 36.3928 3.76341 36.2586 3.75143C36.1672 3.74315 35.9175 3.93396 35.8598 3.70901C35.8221 3.56258 36.2233 3.15937 35.6685 3.16033C35.5641 3.01678 35.8301 3.06136 35.8358 3.04407C35.8842 2.8733 35.5431 2.74491 35.3855 2.87531C35.3727 2.88656 35.4972 3.01963 35.3619 3.07184C35.0407 3.19655 34.8552 3.04394 34.6472 2.83747C34.6247 3.07965 34.3544 3.36887 34.018 3.27935C34.0008 3.34865 33.9844 3.41856 33.9672 3.48838C34.0194 3.4517 34.0716 3.41551 34.1239 3.37883C34.1808 3.4223 34.2412 3.45394 34.2968 3.50516C33.9585 3.56472 33.9106 3.89847 33.7484 4.02058C33.1932 4.43772 33.5297 3.55534 33.6298 3.40324C33.702 3.46482 33.7718 3.53356 33.8433 3.59824C33.8354 3.51389 33.8273 3.4289 33.82 3.34404C32.9889 3.34662 33.6935 2.79652 33.2716 2.63973C33.163 3.05471 32.8532 3.0947 32.4585 2.83137C32.4148 2.83344 32.3709 2.83397 32.3272 2.83656C32.32 2.89706 32.3201 2.98955 32.3082 3.02942C31.8327 3.09979 31.748 2.46072 31.703 2.40018C31.503 2.13166 31.3472 2.50319 31.2883 2.50637C31.04 2.51931 30.9678 2.35434 30.7314 2.4252C30.4772 2.50177 30.651 2.62835 30.5737 2.74165C30.5116 2.83163 30.311 2.84766 30.2282 2.94092C30.2611 2.86464 30.2977 2.78984 30.3305 2.71327C30.067 2.60928 29.8516 2.50792 29.5524 2.48257C29.2146 3.04071 28.9273 2.0992 29.0438 2.8628C29.3273 2.91507 29.4858 3.00208 29.6374 3.19665C29.4514 3.22148 29.2652 3.24566 29.0791 3.2705C29.0248 3.18669 28.9863 3.10501 28.9221 3.01965C28.783 3.19763 28.4607 3.12125 28.3341 3.17346C27.7414 3.41821 27.9248 3.72178 27.3838 3.2116C27.7737 3.16189 27.7731 2.9141 28.1598 2.94825C28.0764 2.77128 27.8798 2.80794 28.007 2.59579C27.6329 2.64804 27.7538 2.83746 27.6082 3.00562C27.4826 3.15058 27.2297 3.1587 27.244 3.34709C27.2182 3.24351 27.1982 3.14324 27.1724 3.03979C26.93 3.04083 26.6877 3.0409 26.4454 3.04193C26.5487 2.9338 26.6519 2.82547 26.7552 2.71785C26.6772 2.67701 26.599 2.63632 26.5209 2.59548C25.9249 2.93183 24.8971 2.31539 25.0613 3.16033C24.7739 3.18724 24.738 3.08126 24.5817 2.92139C24.5645 2.98554 24.5477 3.03889 24.5305 3.11029C24.3451 3.04314 24.2028 3.28397 24.0393 3.22137C23.8757 3.15924 23.8351 2.93177 23.8113 3.31413C23.7054 3.20445 23.6 3.11334 23.4948 3.01141C23.4312 3.09828 23.3678 3.18415 23.3049 3.2705C23.2056 3.22496 23.106 3.17962 23.0067 3.13409C22.9536 3.31661 22.563 3.23794 22.3909 3.36052C22.2274 3.16377 22.2319 2.54428 21.8474 2.65529C21.8573 2.80894 21.8671 2.96214 21.877 3.11578C21.789 3.0837 21.7007 3.05173 21.612 3.01965C21.6067 2.96951 21.6021 2.91936 21.5968 2.86921C21.6419 2.88473 21.6863 2.90017 21.7313 2.9162C21.6922 2.83134 21.6539 2.74687 21.6155 2.66201C21.4811 2.78773 21.3465 2.91346 21.2115 3.03918C21.3935 3.13437 21.5757 3.22963 21.7578 3.32481C21.5293 3.43762 21.3703 3.3251 21.1716 3.45085C20.9988 3.23872 21.0626 3.11649 21.1328 2.8863C21.0686 2.90595 21.0036 2.92493 20.9394 2.94458C20.9817 2.71436 20.8731 2.57718 21.2485 2.59579C21.2227 2.53012 21.1964 2.46751 21.1712 2.39926C21.1097 2.40961 21.0697 2.3541 21.0022 2.37943C20.8181 2.44877 20.6769 2.85315 20.6895 2.99494C20.6963 3.06921 20.8778 2.92717 20.8706 3.03217C20.8526 3.2882 20.4362 3.17325 21.0368 3.4304C20.8374 3.5934 20.7929 3.47047 20.5731 3.42338C20.5903 3.5087 20.607 3.59348 20.6235 3.6788C20.5216 3.63949 20.4195 3.60032 20.3176 3.56101C20.4593 3.12274 19.7076 2.95813 20.3843 2.57473C20.1843 2.55507 19.985 2.53531 19.7857 2.51461C19.8268 2.4696 19.8678 2.42505 19.9089 2.38004C19.9989 2.40384 20.0885 2.42725 20.1785 2.45053C20.0726 2.36828 19.9665 2.28652 19.8605 2.20427C19.6102 2.30621 19.5121 2.46299 19.3975 2.65651C19.6889 2.79774 19.5937 2.60483 19.8207 2.56649C19.8127 2.68905 19.8232 2.80178 19.8034 2.93055C19.6861 2.67668 19.3035 2.86137 19.2147 2.87379C18.9447 2.9115 19.1564 2.66206 18.9758 2.65682C18.795 2.65164 18.5818 2.80011 18.4341 2.55276C18.4368 2.69139 18.4486 2.83483 18.4592 2.96106C18.1777 3.0066 18.2339 2.84282 18.2047 2.82161C17.7398 2.47285 17.4876 2.76729 16.9558 2.80299C17.0233 2.84593 17.0916 2.8847 17.1598 2.92505C16.7586 3.21941 17.0288 3.12928 17.3772 3.22655C17.0507 3.19706 16.8637 3.44774 16.6332 3.52225C16.4028 3.59664 16.0076 3.46789 15.8632 3.36754C16.1937 3.20609 16.5501 3.31256 16.917 3.26806C16.8753 3.12683 16.8347 3.0073 16.7917 2.85212C16.5685 3.14854 16.4392 2.95034 16.3657 2.91102C16.1499 2.79568 16.1567 3.05009 16.0262 2.77644C16.0315 2.87058 16.0354 2.94973 16.0407 3.03766C15.595 2.99833 15.1143 2.83191 14.8242 3.17956C14.7978 2.95345 14.7778 2.73561 14.7473 2.50485C14.5586 2.67505 14.397 2.50076 14.2381 2.54055C14.0798 2.5804 14.1401 2.76313 13.954 2.83351C13.9195 2.84644 13.8478 2.73207 13.7631 2.81642C13.6775 2.90121 13.3618 3.53167 13.3241 2.9809C13.1645 2.97831 13.0134 2.95817 12.8572 2.94886C13.0095 2.91781 13.1618 2.88774 13.3135 2.8567C13.1837 2.72321 13.0547 2.59012 12.9249 2.45663C12.9084 2.57565 12.8918 2.69682 12.8759 2.81428C12.5262 2.95917 12.2725 2.76458 11.9195 2.81062C11.8606 2.81838 11.9996 3.05369 11.7381 2.99372C11.4765 2.93369 11.2824 2.49451 10.8368 2.66414C10.8143 2.67294 10.6823 3.0093 10.5227 2.77644C10.4864 2.72367 10.6392 2.64557 10.5559 2.57626C10.4724 2.50692 10.1001 2.4499 10.071 2.28483C10.075 2.34328 10.0982 2.40385 10.1094 2.46335C10.0459 2.49128 9.98168 2.51924 9.91747 2.54666C9.91151 2.44369 9.90507 2.34058 9.89912 2.23814C9.53357 2.47771 9.34466 2.86852 8.803 2.73921C8.9553 2.88874 9.10766 3.03888 9.2593 3.18841C9.30102 3.08336 9.34282 2.97761 9.38388 2.87257C9.6335 2.91447 9.88382 2.95608 10.1334 2.99799C10.1745 2.87845 10.2148 2.75926 10.2559 2.63973C10.3221 2.65525 10.3877 2.67029 10.4539 2.68581C10.4373 2.77222 10.4206 2.85817 10.4034 2.94458C10.5345 2.92337 10.6658 2.90171 10.7962 2.8805C10.5307 3.39056 10.0546 2.83712 10.089 3.26378C10.0301 3.19758 9.97108 3.13092 9.91217 3.06421C9.88634 3.27109 9.76655 3.21155 9.55539 3.17895C9.60373 3.28089 9.65712 3.38144 9.70149 3.48441C9.49619 3.34058 9.13203 3.35455 8.91945 3.29918C8.82609 3.27486 8.91935 3.12487 8.89157 3.10724C8.74919 3.01513 8.47705 3.27685 8.42009 3.25615C8.07972 3.13298 7.85852 2.63678 7.48702 2.96381C7.87046 3.04453 7.66185 3.01044 7.79828 3.19207C7.84098 3.24902 8.33635 3.36781 7.71605 3.31505C7.64333 3.30845 6.5178 2.96561 6.88778 2.7029C6.70567 2.78673 6.56308 2.88366 6.39619 2.97266C5.98824 2.28029 6.12943 2.93072 6.24797 3.28881C6.18108 3.29036 6.11745 3.29399 6.04858 3.29399C6.19493 2.9178 5.44929 2.89444 5.19631 3.08435C5.11155 3.14748 5.34857 3.26789 5.15255 3.32481C5.05922 3.29843 4.95333 3.26427 4.8547 3.23479C4.99774 3.47281 4.71702 3.56453 4.72095 3.80666C4.5415 3.5909 4.40424 3.13357 4.50286 2.88569C4.35454 2.98606 4.20546 3.0863 4.05714 3.18719C4.12601 3.24462 4.19578 3.30156 4.26465 3.35899C3.77988 3.20686 3.15657 3.55304 3.05524 3.04437C2.99101 3.04799 2.92609 3.05113 2.86185 3.05475C2.84199 3.14065 2.82278 3.22671 2.80292 3.31261C2.51226 3.23811 2.22226 3.16312 1.9316 3.08862C2.1904 3.03531 2.25201 2.91305 2.52342 3.01233C2.41883 2.91354 2.31229 2.8142 2.20969 2.71541C1.80109 2.98138 1.74535 3.15618 1.13015 3.07702C1.10234 3.0734 0.63751 2.85036 0.621616 2.82862C0.548799 2.72928 0.659334 2.58496 0.62691 2.53475C0.536844 2.394 -0.0104442 2.04059 0.000151819 1.9873C0.133928 1.33322 1.97529 1.32455 2.4733 1.29092C7.6388 0.942169 12.6905 1.40875 17.8236 1.32906C17.8764 1.32783 17.8533 1.23128 17.8758 1.22714C18.0155 1.20289 18.1527 1.35337 18.2044 1.35958C18.3147 1.37238 18.254 1.23334 18.3346 1.23324C19.1677 1.2348 19.9539 1.31655 20.7876 1.29275C20.8419 1.2912 20.7865 1.40244 20.8819 1.38277C20.9311 1.37201 21.0852 1.20134 21.1963 1.19876C21.5843 1.18997 21.9103 1.24468 22.3196 1.24209C22.5434 1.24055 22.8792 1.25506 23.1295 1.25247C23.24 1.25137 23.3552 1.17329 23.4644 1.17069C23.6194 1.16706 23.5877 1.32534 23.6116 1.33517C23.7162 1.37811 23.7307 1.20439 23.83 1.20853C24.0148 1.21681 24.0247 1.33279 24.2591 1.32296C24.4267 1.31572 24.8102 1.22414 25.0214 1.19723C25.5155 1.33176 26.138 1.27835 26.5989 1.23385C26.8717 1.20747 26.897 1.36986 27.0083 1.36935C27.4003 1.3662 27.6978 1.1588 28.0659 1.15207C28.5545 1.14331 28.9876 1.28045 29.461 1.29031C29.5377 1.29186 29.5201 1.14307 29.5954 1.13925C29.8742 1.12528 30.2307 1.0982 30.4791 1.11942C30.7559 1.14273 30.8579 1.3587 31.1288 1.31472C31.2082 1.30166 31.2315 1.1123 31.3645 1.08799C31.5771 1.04976 31.8101 1.21674 31.9585 1.23538C32.1618 1.26022 31.985 1.0673 32.2591 1.09318C32.2704 1.09429 32.3114 1.23219 32.3703 1.22561C32.5418 1.20699 32.5248 1.09839 32.7758 1.10874C32.7999 1.11017 33.1327 1.24157 33.1657 1.24209C33.3604 1.24416 33.7524 1.29017 33.8677 1.26223C34.2796 1.16288 33.9553 0.955467 34.3056 1.40566C34.4599 1.29547 34.6129 1.18378 34.7764 1.0767C34.6673 1.17657 35.1102 1.32068 35.1413 1.31137C35.3988 1.23632 35.2454 1.06115 35.5718 1.09012C35.1407 1.49478 35.993 1.14228 36.1831 1.13193C36.9809 1.08819 37.7154 1.15931 38.5 1.17657L43.6425 1.03107L39.6391 4.42386C39.5474 4.494 39.4555 4.56573 39.3636 4.63969C39.1238 4.83288 38.855 5.15746 38.5993 5.35936C38.5399 5.4067 38.5249 5.29607 38.4714 5.33622C38.4185 5.37676 38.5434 5.4145 38.4804 5.4576C38.0874 5.72428 37.671 5.79763 37.4907 6.26658C37.4513 6.25115 37.4337 6.22811 37.3813 6.21851C37.246 6.61763 36.5214 6.80614 36.2945 6.93392C35.94 7.13409 35.9557 7.31812 35.7084 7.47629C35.3811 7.68515 34.741 7.81305 35.2525 8.03797C35.0554 8.21554 34.859 8.37816 34.6213 8.50932C34.5948 8.52384 34.5322 8.41275 34.5213 8.41817C34.4511 8.45121 34.5023 8.55456 34.4657 8.59045C34.3664 8.68768 34.4583 8.44139 34.3279 8.59396C34.2593 8.67466 34.2746 8.78829 34.0505 8.97027C33.446 9.46007 32.8125 9.96129 32.1714 10.4642L30.7466 7.14205C31.7467 7.01538 32.7581 6.89245 33.7369 6.76823C33.8584 6.7527 33.762 6.64301 33.9153 6.62994C34.4478 6.58451 35.4222 6.65836 35.8744 6.56852C36.3267 6.47865 36.1997 6.31634 36.475 6.20358C36.5282 6.18171 36.4967 6.28838 36.5468 6.28312C36.8833 6.24663 37.3045 6.34888 37.5793 6.33542C37.7611 6.32673 37.7252 6.17058 37.8483 6.14229C38.0317 6.10056 38.2446 6.23424 38.3444 6.22586C38.8133 6.18486 39.116 6.01253 39.5599 6.01883C39.5382 5.98636 39.5225 5.95568 39.5034 5.92336C40.0193 5.85877 40.5344 5.79427 41.0502 5.72968C41.0216 5.7012 40.9938 5.67234 40.9651 5.64335C41.5718 5.57839 41.5498 5.93233 41.3974 5.21204C41.4379 5.18042 41.4804 5.14436 41.5192 5.11505C41.5532 5.49215 41.9562 5.71656 42.4344 5.74851C42.4695 5.75104 42.6486 5.35441 42.6825 5.78952C42.7278 5.67576 42.7535 5.5981 42.7914 5.49841C42.9076 5.6157 43.0249 5.73126 43.1411 5.84803C43.1915 5.8213 43.2429 5.79516 43.2933 5.76844C43.2897 5.68277 43.2716 5.59575 43.2774 5.51037C43.5223 5.46391 44.0426 5.4995 44.236 5.46218C44.7166 5.36897 45.1784 5.07302 45.5887 5.26879C45.7688 5.21857 45.5639 5.07738 45.8397 5.06118C45.882 5.14104 45.922 5.21766 45.9659 5.2999C46.1377 4.89389 46.2154 5.11602 46.5317 5.15283C46.7457 5.17796 46.8685 5.0677 47.0678 5.05879C47.1183 5.0566 47.1263 5.16781 47.1599 5.15957C47.2726 5.13261 47.578 4.93642 47.6581 4.92131C48.3835 4.78166 49.0138 4.71305 49.7155 4.65862C49.7908 4.65252 49.679 4.55695 49.7571 4.55101C49.8826 4.54126 49.8321 4.71844 49.9054 4.7168C50.1097 4.71129 50.0872 4.53479 50.3667 4.48728C51.2871 4.33098 52.3681 4.31846 53.3355 4.19855C53.3657 4.19443 53.3498 4.09139 53.3825 4.08589C53.5957 4.05168 53.8312 4.16178 54.0252 4.13377C54.3471 4.08778 54.5694 3.90966 54.8877 3.86677C55.5098 3.78246 56.0757 3.78097 56.7161 3.69784C57.2402 3.63002 57.6931 3.55423 58.2673 3.47645C60.7755 3.13652 63.2899 2.45969 65.8386 2.2897C65.9035 2.28555 65.8898 2.38037 65.9088 2.37375C66.0898 2.30886 66.0896 2.18346 66.1911 2.43228C66.4215 2.34909 66.47 2.14515 66.7586 2.1199C66.9124 2.10632 66.8392 2.42213 67.0766 2.23206C67.291 2.06027 67.0109 1.93084 67.728 2.00434C67.747 2.00645 67.8624 2.17714 68.0002 2.10981C68.1388 2.04286 67.9531 1.9347 68.2968 1.84762C69.1037 1.64359 70.1627 1.66033 71.1087 1.48173C71.168 1.47051 71.7297 1.29425 71.8371 1.23365C72.0448 1.11602 71.9804 0.986275 72.2612 0.914034C72.4782 0.858333 72.6811 0.98759 72.9361 0.921482C72.9657 0.913627 72.9947 0.74826 73.1924 0.742706ZM35.1609 4.87002C35.1052 4.71355 34.8209 4.2013 35.1871 4.13344C35.2218 4.12693 35.3387 4.54206 35.5198 4.47811C35.4074 4.62171 35.281 4.74027 35.1612 4.87049C35.1611 4.87033 35.161 4.87017 35.1609 4.87002ZM75.1002 4.19962C74.8528 4.2041 74.6047 4.20896 74.3573 4.21345C74.5159 4.12133 74.6747 4.0293 74.8325 3.93676C74.9219 4.02429 75.0107 4.11208 75.1002 4.19962ZM44.7588 8.0602C44.759 8.06017 44.7592 8.06014 44.7595 8.06011C44.5136 8.16883 44.2677 8.27772 44.0218 8.38645C44.0413 8.32843 44.0608 8.27017 44.0803 8.21216C44.2707 8.099 44.4612 7.98594 44.651 7.87287C44.6869 7.93532 44.7229 7.99775 44.7588 8.0602ZM46.7021 7.20911C46.8743 7.25143 46.8492 7.36583 46.9535 7.45971C46.9535 7.45951 46.9535 7.45931 46.9534 7.4591C46.9809 7.4835 47.0947 7.4926 47.138 7.49091C47.113 7.42487 47.0834 7.36033 47.0571 7.29497C47.4159 7.07789 48.2414 7.5629 47.3084 7.93089C47.3111 7.8428 47.3132 7.75524 47.3159 7.66715C46.8395 7.75666 46.2793 7.64278 46.7021 7.20911ZM38.3831 3.87594C37.9698 4.16054 37.8373 4.22054 37.336 4.02546C37.4068 3.9448 37.4776 3.86414 37.5485 3.78347C37.6312 3.86575 37.7134 3.94746 37.7962 4.02974C37.7964 4.02974 37.7967 4.02974 37.7969 4.02974C37.8135 3.94332 37.8301 3.85676 37.846 3.77035C38.0247 3.80553 38.2043 3.84075 38.3831 3.87594ZM62.4034 5.2756C62.5943 5.82324 62.5168 5.50036 62.2081 5.67181C62.1013 5.7313 62.2247 5.81484 62.1567 5.84082C61.7898 5.98214 61.708 5.60893 61.7659 5.40104C61.9786 5.35845 62.1938 5.31673 62.4027 5.2757C62.4029 5.27567 62.4032 5.27563 62.4034 5.2756ZM72.2247 3.81715C72.2249 3.81712 72.2251 3.81709 72.2254 3.81705C72.254 3.95308 72.1061 4.01088 72.2963 4.11753C72.1651 4.1349 72.0338 4.15169 71.9019 4.16915C71.9388 4.15108 71.9766 4.1335 72.0135 4.11543C71.973 4.07291 71.9323 4.02981 71.8917 3.98729C71.8666 4.15154 71.8108 4.06566 71.6659 4.03163C71.7269 4.19512 71.7878 4.35876 71.8489 4.52224C71.682 4.49384 71.5144 4.46534 71.3475 4.43693C71.3398 4.39469 71.3319 4.35238 71.3242 4.31014C71.2712 4.3727 71.219 4.43577 71.1661 4.49832C71.1427 4.44981 71.1201 4.40168 71.0968 4.35317C71.0292 4.40153 70.9615 4.44989 70.894 4.49877C70.8551 4.37886 71.0083 4.30385 70.7281 4.37387C70.7982 4.23586 70.8681 4.09826 70.9388 3.96016C71.3674 3.91216 71.796 3.86463 72.2247 3.81715ZM59.4615 5.85325C59.9287 5.76551 59.8084 5.87267 59.7375 6.16641C59.6457 6.06197 59.5532 5.95768 59.4615 5.85325ZM35.1894 8.91023C35.0788 9.11906 34.9674 9.32607 34.8527 9.52868C34.5889 9.67275 34.2633 9.364 34.4541 9.19959C34.6839 9.0022 34.9719 9.14878 35.1894 8.91023ZM32.3917 7.16624C32.0678 7.31134 32.1777 6.93129 32.1552 6.77905C32.3629 6.88657 32.4546 6.78906 32.6363 6.67549C32.4889 6.81117 32.4455 7.14256 32.3921 7.16672C32.392 7.16656 32.3918 7.1664 32.3917 7.16624ZM40.6964 8.37701C40.832 8.35273 40.9605 8.2811 41.0913 8.32902C41.0793 8.51593 40.8127 8.38372 41.024 8.62955C40.9373 8.64606 40.8506 8.66245 40.7647 8.67938C40.8045 8.56016 40.7191 8.48677 40.6968 8.37757C40.6967 8.37739 40.6965 8.3772 40.6964 8.37701ZM54.9325 6.68921C54.6354 6.51037 54.5972 6.60943 54.3479 6.79541C54.2859 6.62526 54.5675 6.28772 54.7601 6.19561C54.8173 6.36014 54.8746 6.52476 54.9325 6.68921ZM8.22 3.85335C8.28488 3.6278 8.76351 3.59839 9.00133 3.66507C8.97301 3.69852 8.9446 3.73242 8.91628 3.76638C8.68449 3.79536 8.45179 3.82438 8.22 3.85335ZM32.7249 6.62413C32.693 6.64123 32.6636 6.65848 32.6363 6.67549C32.6625 6.65143 32.6916 6.63305 32.7249 6.62413ZM30.8877 2.79872C31.0009 2.58607 30.6645 2.51462 31.073 2.59792C31.073 2.59772 31.073 2.59752 31.073 2.59731C31.3432 2.65216 31.4029 2.66681 31.6532 2.68337C31.5631 2.95655 31.0552 3.05419 31.7552 3.11059C31.7644 3.11084 31.7461 2.94829 31.8579 2.97052C31.8924 2.97744 32.0029 3.11084 32.1709 3.14965C32.2252 3.16207 32.6333 3.20321 32.077 3.2058C32.0936 3.39623 32.0637 3.58897 32.065 3.77371C31.8479 3.82739 31.681 3.45452 31.4513 3.46366C31.1103 3.47815 30.9367 3.85521 30.8712 3.36052C31.1579 3.23898 31.6504 3.23606 31.7146 3.53354C31.992 3.53717 32.0717 3.29343 31.848 3.17284C30.8897 3.32601 31.5849 2.81106 30.7459 3.00562C30.7359 3.07442 30.7014 3.14846 30.7067 3.21313C30.4506 2.97101 30.8474 2.87478 30.8877 2.79872ZM32.8915 3.32481C32.726 3.47022 32.561 3.6168 32.3961 3.76272C32.3961 3.52573 32.487 3.31306 32.7479 3.17956C32.7955 3.22816 32.8439 3.27673 32.8915 3.32481ZM18.9645 3.38707C18.9407 3.51591 18.8771 3.63398 18.8308 3.75662C18.7804 3.64795 17.5884 3.54371 18.1948 3.43711C18.2829 3.42159 18.8202 3.64942 18.9645 3.38707ZM56.7651 6.24342C56.6143 6.17677 56.464 6.1099 56.3139 6.04316C56.5196 5.95978 56.7253 5.87496 56.9309 5.79056C56.8754 5.94151 56.8206 6.09248 56.7651 6.24342ZM32.8943 8.99497C32.9538 8.99175 32.7825 9.19393 33.0103 9.13469C32.853 9.27051 32.7044 9.38759 32.5501 9.5162C32.4883 9.44003 32.4259 9.36427 32.3641 9.2881C32.332 9.34679 32.2991 9.40527 32.267 9.46396C32.2741 9.33974 32.279 9.21869 32.2872 9.09224C32.6067 9.31293 32.6317 9.00989 32.8943 8.99497ZM41.2782 7.36973C41.3651 7.62573 40.975 7.83822 41.3855 7.82508C41.3323 8.00832 41.2212 8.11577 40.9864 8.16346C40.9394 8.10257 40.8925 8.04215 40.8455 7.98126C40.8643 8.15879 40.8123 8.23282 40.6964 8.37701C40.6963 8.37683 40.6961 8.37664 40.696 8.37646C40.3376 8.43836 40.3511 8.37648 40.2248 8.09761C40.6284 8.20969 40.6036 7.94256 40.8419 7.74921C41.0056 7.61628 41.2453 7.63368 41.2782 7.36973ZM20.2346 3.38402C19.9625 3.60806 20.2067 3.81703 19.724 3.57901C19.7551 3.52209 19.7864 3.46565 19.8175 3.40873C19.9565 3.39994 20.0956 3.39178 20.2346 3.38402ZM42.7315 8.08964C42.6452 7.68677 42.3482 7.40451 42.3951 8.07268C42.6609 8.17379 42.4889 7.81514 42.7315 8.08964ZM32.7021 7.74175C32.3152 8.02669 32.0964 7.6079 32.1057 7.30361C32.1822 7.35044 32.2587 7.39741 32.3344 7.44425C32.3761 7.36181 32.4178 7.2793 32.4599 7.19727C32.5405 7.37862 32.6214 7.5604 32.7021 7.74175ZM51.0567 6.49889C50.7328 6.83917 51.4711 6.60705 51.2419 6.82319C51.0589 6.99592 50.7518 6.73943 50.8278 6.5421C50.8974 6.5274 50.975 6.51315 51.056 6.49898C51.0562 6.49895 51.0564 6.49892 51.0567 6.49889ZM48.9644 6.86889C49.0664 7.17136 48.9681 7.09255 49.2476 6.9975C49.3275 6.97042 49.9952 6.9982 49.6864 6.77813C49.4536 6.80989 49.2069 6.83896 48.9644 6.86889ZM36.7489 3.91691C36.8376 4.02075 36.6294 4.57124 36.5318 4.55332C36.5319 4.55348 36.532 4.55364 36.5322 4.5538C36.2674 4.50382 36.6665 4.14737 36.3103 4.07315C36.8653 3.94525 36.6123 3.38321 37.0757 4.01973C36.8611 4.23553 36.8716 4.01951 36.7489 3.91691ZM1.93548 3.21068C1.93524 3.21068 1.93501 3.21068 1.93477 3.21068C1.96879 3.2171 2.24906 3.41746 2.21498 3.48686C1.87793 3.42735 1.938 3.29547 1.62422 3.51218C1.60702 3.44238 1.59228 3.37468 1.57375 3.30437C1.69825 3.26297 1.76727 3.17912 1.93548 3.21068ZM17.6757 3.11181C17.7996 3.07611 18.0255 3.22406 18.1666 3.21526C17.7176 3.78343 17.1811 3.25361 17.6757 3.11181ZM67.6264 4.4639C67.626 4.46415 67.6257 4.4644 67.6254 4.46465C67.6255 4.46433 67.6256 4.46401 67.6256 4.46369C67.6259 4.46376 67.6261 4.46383 67.6264 4.4639ZM27.2722 3.45268C27.2563 3.4158 27.2472 3.38376 27.244 3.35564C27.244 3.35299 27.244 3.35035 27.244 3.3477C27.2526 3.38223 27.2618 3.41716 27.2722 3.45268ZM37.5452 3.22711C37.8289 3.24399 37.4691 3.91944 37.2465 4.00501C37.2046 3.92723 37.1573 3.86416 37.1239 3.76308C37.4077 3.8242 37.4978 3.22399 37.5452 3.22711ZM38.2883 8.3586C37.7371 8.42854 38.352 7.58601 38.4625 8.17623C38.463 8.18789 38.3024 8.35565 38.2883 8.3586ZM34.1729 6.02579C34.2045 6.29194 34.4644 6.16142 34.0846 6.41488C34.0271 6.38539 33.9696 6.35577 33.9121 6.32628C33.9991 6.22622 34.0859 6.12585 34.1729 6.02579ZM34.5485 7.87255C33.8727 8.09265 33.2403 8.40461 33.7764 8.96493C33.8261 8.9378 33.8767 8.91124 33.9264 8.88411C33.8929 8.57965 34.109 8.71887 34.3936 8.69013C34.4175 8.56417 34.5708 8.5149 34.5863 8.40852C34.6163 8.20289 34.4169 8.0884 34.5485 7.87255ZM63.8687 4.37728C63.8646 4.43058 63.8608 4.48413 63.8567 4.53692C63.755 4.61031 63.6531 4.68346 63.5515 4.75686C63.5556 4.65506 63.5598 4.55327 63.564 4.45148C63.6655 4.42668 63.7665 4.40187 63.868 4.37707C63.8682 4.37714 63.8685 4.37721 63.8687 4.37728ZM33.573 2.67879C33.5095 3.25405 33.7315 3.1481 34.1818 2.85731C33.9791 2.7978 33.7756 2.7383 33.573 2.67879ZM45.7141 6.58526C45.7506 6.74523 45.7868 6.90472 45.824 7.0646C46.0379 6.86361 45.9686 6.68417 45.8259 6.48533C45.7883 6.51862 45.7517 6.55197 45.7141 6.58526ZM49.1168 6.05105C49.0139 6.03066 49.0819 6.15457 49.0713 6.15335C48.8132 6.11855 48.77 6.06336 48.4783 6.20341C48.4456 6.24285 48.4138 6.28398 48.3812 6.32444C48.5685 6.64452 48.6457 6.44562 48.9714 6.6043C48.9017 6.49525 48.8323 6.38601 48.7625 6.27645C48.9318 6.27842 49.1004 6.28015 49.2698 6.28212C49.2845 6.24354 49.2994 6.2053 49.3142 6.16672C49.2489 6.12864 49.1809 6.08511 49.1168 6.05105ZM65.156 4.35173C65.3192 4.34305 65.4833 4.33479 65.6465 4.32611C65.641 4.24174 65.6352 4.15683 65.6297 4.07246C65.472 4.1655 65.3137 4.25869 65.156 4.35173ZM30.2282 2.94092C30.2153 2.97084 30.2027 3.00094 30.1915 3.03156C30.1926 2.99425 30.2067 2.96512 30.2282 2.94092ZM1.50564 2.74806C1.32091 2.68908 1.0547 2.72781 0.852063 2.71541C0.867993 2.92699 1.38302 2.86851 1.56387 2.99677C1.59293 2.9588 1.58373 2.77288 1.50564 2.74806ZM32.1718 8.14212C32.2015 8.2535 32.231 8.36445 32.2613 8.47541C32.1668 8.53643 32.0717 8.59712 31.9766 8.65856C32.028 8.72811 32.08 8.79821 32.1314 8.86776C32.4485 8.47028 32.5149 8.7363 32.8601 8.77482C32.6306 8.56422 32.4017 8.35312 32.1718 8.14212ZM70.2179 3.10833C69.8708 3.21467 69.7596 3.34006 69.9948 3.56963C70.112 3.4936 70.23 3.41742 70.3472 3.34139C70.3039 3.26376 70.2605 3.18605 70.2179 3.10833ZM23.7033 2.74562C23.4035 2.84249 23.3985 2.49457 23.1055 2.68886C23.2624 2.75301 23.4193 2.81788 23.5756 2.88203C23.6178 2.83667 23.6611 2.79098 23.7033 2.74562ZM38.4074 1.79016C38.2809 1.66913 38.0445 2.24445 37.6889 1.81976C37.6042 1.94651 37.5511 2.06759 37.4782 2.19175C37.4359 2.0567 37.3877 1.91991 37.3473 1.78589C37.3471 1.78589 37.3468 1.78589 37.3466 1.78589C37.0241 1.83143 37.2332 2.00081 37.2259 2.14415C37.2225 2.20357 36.9831 2.10424 37.0579 2.23356C37.1871 2.45555 37.6696 2.3279 37.6709 2.59853C37.5014 2.51008 37.1703 2.58399 37.2683 2.76454C37.3755 2.96271 37.6875 2.6306 37.8862 2.79506C37.6015 2.36251 38.1895 2.49612 38.2564 2.82832C38.6014 2.57321 38.2843 2.46915 37.9307 2.48105C38.1465 2.22646 37.8288 2.36401 37.7764 2.15239C37.9554 2.04967 38.4844 2.0984 38.5 1.94417L41.4777 1.85992L39.1596 3.82447C39.1621 3.82834 39.1651 3.83208 39.1685 3.83566L41.5181 1.84444L38.5 1.92983C38.4966 1.8942 38.4686 1.8488 38.4074 1.79016ZM37.4204 7.37683C37.1863 7.42532 36.7975 7.33147 36.6648 7.56641C36.5875 7.70329 36.9706 7.74887 36.742 7.97844C36.9696 7.92806 37.0118 7.84481 36.9491 7.67948C36.9988 7.65183 37.0492 7.62459 37.0989 7.59745C37.1277 7.62745 37.1571 7.65692 37.1859 7.68691C37.2039 7.61292 37.2221 7.53947 37.2394 7.46557C37.297 7.4718 37.3553 7.47796 37.413 7.48471C37.4147 7.4485 37.4217 7.41624 37.4204 7.37683ZM15.0949 2.7563C15.1611 2.75423 15.2267 2.75217 15.2929 2.74959C15.2856 2.70763 15.2769 2.66393 15.2686 2.62081C15.2626 2.58673 15.2566 2.55266 15.2506 2.51858C15.2889 2.64033 15.6043 2.84268 15.7372 2.71266C15.804 2.64744 15.652 2.41588 15.9352 2.37546C15.73 2.38737 15.5398 2.41897 15.3405 2.43863C15.3584 2.36981 15.3756 2.30025 15.3935 2.23142C15.3934 2.23132 15.3932 2.23122 15.3931 2.23112C15.3269 2.2156 15.2599 2.19934 15.1937 2.18382C15.1606 2.37476 15.128 2.56536 15.0949 2.7563ZM45.4781 6.29129C45.2726 6.45562 45.2072 6.53533 45.3424 6.73729C45.3426 6.73736 45.3429 6.73743 45.3431 6.73749C45.4133 6.63027 45.4837 6.52308 45.5539 6.41586C45.5289 6.37436 45.5038 6.3327 45.4781 6.29129ZM28.283 2.22013C27.8029 3.0496 28.8841 2.54112 28.6782 2.25858C28.6689 2.24565 28.328 2.31172 28.283 2.22013ZM32.9303 7.88585C32.8316 7.97343 32.7323 8.06068 32.6331 8.14867C32.7205 8.20925 32.8083 8.26909 32.8958 8.32966C32.9074 8.18191 32.9188 8.0336 32.9303 7.88585ZM68.6215 2.94597C68.4533 2.73912 68.0893 2.70549 67.9504 2.97435C68.0449 2.99071 68.1394 3.00711 68.2338 3.02347C68.0665 3.075 67.9014 3.12911 67.7326 3.17929C67.7663 3.49484 67.9402 3.28539 68.2512 3.33124C68.2995 3.3389 68.6488 3.68864 68.711 3.38065C68.7233 3.3174 68.4027 3.31927 68.5977 3.11368C68.5 3.11291 68.4178 3.12724 68.3263 3.1319C68.3095 3.05794 68.2928 2.98389 68.2753 2.91001C68.391 2.92186 68.5059 2.93413 68.6215 2.94597ZM36.0481 7.58891C35.7212 7.61582 35.6983 7.74686 35.6609 7.97802C35.8084 7.93232 35.9561 7.88699 36.1035 7.84129C36.0848 7.75738 36.067 7.67332 36.0481 7.58891ZM65.7108 3.26958C65.5282 3.25751 65.6289 3.42778 65.5621 3.47188C65.3094 3.63792 65.1074 3.53395 64.8514 3.65133C64.8644 3.61405 64.8762 3.57924 64.8887 3.54307C64.8884 3.54311 64.8882 3.54314 64.888 3.54317C63.6028 3.56333 64.3228 3.88247 65.0703 3.71265C65.0971 3.7774 65.1233 3.84233 65.1501 3.90657C65.4727 3.74299 65.7695 3.58744 65.7108 3.26958ZM32.5485 2.19175C32.5339 2.14932 32.6578 1.87967 32.4254 2.00591C32.2413 2.39961 32.5432 2.2042 32.6187 2.35562C32.5558 2.3934 32.4915 2.43015 32.4292 2.46792C32.8054 2.57918 32.8603 2.48557 32.7232 2.19786C32.7134 2.17852 32.5631 2.23405 32.5485 2.19175ZM30.0764 1.99767C30.0248 2.57775 30.4995 2.3169 30.4823 2.13682C30.4167 2.12965 30.3658 2.22786 30.2963 2.18443C30.2261 2.14097 30.2081 2.00547 30.0764 1.99767ZM34.9949 6.90593C35.0074 6.89926 35.2688 7.00235 35.1388 6.86199C34.7216 6.61722 34.6313 7.06183 34.7771 7.14661C34.8622 7.06858 34.8799 6.96766 34.9953 6.9064C34.9952 6.90624 34.9951 6.90609 34.9949 6.90593ZM70.7437 2.5186C70.7349 2.50346 70.3763 2.45347 70.344 2.5497C70.3211 2.65621 70.3177 2.76747 70.3045 2.87631C70.4815 2.75295 70.8768 2.77463 70.743 2.5187C70.7432 2.51867 70.7434 2.51864 70.7437 2.5186Z" fill="#FF8C00"/>
</svg>
