<svg width="462" height="29" viewBox="0 0 462 29" fill="none" xmlns="http://www.w3.org/2000/svg">
<path d="M6.45699 12.7146C9.83397 12.3815 14.2792 12.2544 17.6626 12.243C18.723 12.2387 18.2037 12.5354 18.9364 12.5444C20.3693 12.5617 21.6907 12.3522 23.108 12.3902C23.5778 12.404 23.0213 12.858 23.5133 12.863C26.2094 12.8871 28.743 12.628 31.4682 12.5539C44.8916 12.1898 58.07 11.5571 71.6425 10.9346C76.1177 10.7289 81.576 10.7832 86.1845 10.3398C86.7225 10.2877 86.379 9.93912 86.4798 9.90264C88.0608 9.34201 87.5704 10.1167 88.6268 10.1523C92.8195 10.2918 97.4579 10.0475 101.462 9.66488C103.165 9.50101 101.41 8.87306 103.153 9.18004C103.274 9.20059 102.865 9.61719 103.335 9.63077C104.402 9.66078 106.412 9.47014 107.237 9.45173C108.827 9.41823 109.089 9.39856 110.589 9.31304C112.64 9.19952 115.09 9.24741 117.285 9.02693C117.753 8.97871 117.107 8.61557 117.852 8.50251C118.598 8.38951 120.583 8.30452 121.257 8.35881C121.931 8.41314 121.665 8.74495 121.788 8.80999C122.798 9.36048 125.041 8.37957 125.335 8.34102C130.694 7.66288 135.338 7.86648 140.388 7.56211C144.223 7.33003 148.313 6.92548 151.963 6.72836C156.312 6.49507 160.009 6.49106 164.229 6.20044C164.675 6.17023 164.124 5.73075 164.668 5.6929C170.448 5.29121 176.194 4.99804 181.971 4.97048C182.55 4.96813 181.831 5.42614 182.411 5.44851C185.963 5.57633 191.601 6.05714 193.591 4.13152C195.988 4.05827 198.897 3.95664 201.059 4.19103C202.454 4.34174 201.14 4.87247 202.824 4.57861C203.204 4.51286 202.683 4.14832 203.254 4.07954C205.66 3.79035 208.305 3.76032 210.681 3.41329C211.164 3.34177 211.011 2.99636 211.144 2.92447C212.27 2.33973 214.247 3.07611 214.671 3.11282C217.895 3.38267 220.219 3.06096 223.197 2.89359C223.889 2.85495 223.043 2.4293 223.707 2.37507C227.152 2.10014 230.727 1.92662 234.117 1.93466C234.171 1.93487 234.218 1.93733 234.258 1.94174L234.947 5.98286C234.423 6.04006 234.878 5.54425 234.546 5.59683C232.969 5.85125 232.841 6.68337 231.333 6.94157C231.016 6.99696 231.094 6.61396 231.028 6.59339C229.983 6.26958 229.451 7.3023 229.23 7.38486C226.436 8.44749 224.363 8.1193 221.631 9.02888C221.304 9.13856 222.171 9.34758 221.246 9.63008C215.081 11.5146 208.493 13.2686 202.262 14.6812C201.293 14.9014 201.883 14.3902 201.812 14.3683C200.66 14.0369 200.26 15.0354 199.958 15.155C197.568 16.0766 195.08 16.0445 193.691 17.4944C183.921 19.9406 174.412 23.1432 164.625 25.2411L164.184 22.7123C164.921 22.712 165.657 22.7179 166.394 22.7307C166.531 22.7321 166.315 23.1664 166.588 23.1674C169.869 23.1827 169.199 22.5752 171.306 21.6355C171.837 21.3994 173.558 22.2474 173.709 22.3079C174.26 22.5311 173.748 23.1902 173.93 23.2283C175.436 23.523 175.057 21.4827 177.052 21.348C177.115 21.3472 176.878 21.7434 177.048 21.7698C177.576 21.853 178.082 21.6679 178.6 21.764C179.786 21.9872 180.268 22.9586 182.009 22.2575C182.229 22.1669 181.806 21.0234 183.592 20.9589C184.304 20.9341 187.446 20.7029 188.332 20.7193C189.217 20.7357 188.638 21.1522 188.702 21.1643C191.107 21.5021 190.222 21.7685 191.459 22.4246C192.696 23.078 192.249 21.3515 192.72 21.1238C193.192 20.8966 194.958 21.1899 195.395 21.3038C195.832 21.4177 195.315 21.6924 195.7 21.7476C198.253 22.1058 196.747 20.8054 197.558 20.4721C199.47 19.6836 201.08 20.8781 202.879 20.8849C203.366 20.8866 202.951 20.6178 203.38 20.5612C205.082 20.341 206.137 20.6766 208.055 20.175C208.369 20.0932 209.888 19.208 210.944 19.7118C211.094 19.7846 210.706 20.1353 211.439 20.1588C212.534 20.1943 214.499 20.1333 215.661 19.9467C216.519 19.8088 215.493 19.3428 216.591 19.4352C217.079 19.4766 216.205 19.8483 217.12 19.9001C218.03 19.9522 220.336 19.7835 221.214 19.7138C222.089 19.6439 221.583 19.2722 221.652 19.2403C222.07 19.0556 223.739 18.7478 223.887 18.7383C231.382 18.1854 238.341 18.4018 245.626 17.686C246.198 17.6305 245.788 17.2302 245.875 17.2173C247.824 16.9071 246.354 18.1434 247.749 18.4304C247.493 17.5794 248.312 17.6816 249.687 17.494C250.35 17.4029 249.965 17.0926 250.023 17.0542C250.976 16.4796 251.708 17.09 251.894 17.2124C252.581 17.6626 253.253 17.031 253.72 17.3313C254.187 17.6292 253.196 18.1839 254.521 18.0887C254.872 17.7543 253.834 17.0119 254.831 16.8132C258.593 16.0626 265.72 16.2211 268.776 16.082C271.826 15.9433 272.806 15.8201 274.588 15.8127C277.807 15.7995 276.592 15.2786 278.564 14.8703C280.542 14.4616 279.671 16.0028 279.979 16.3009C280.282 16.5991 280.568 16.252 280.93 16.4028C281.291 16.5536 280.549 16.8202 281.375 16.8304C282.201 16.8406 284.41 16.1254 284.679 15.7741C285.248 15.0298 284.186 14.3601 286.378 14.4732C286.504 14.4802 286.124 14.8956 286.606 14.9026C290.43 14.9459 294.383 14.699 298.2 14.708C298.725 14.7099 298.286 15.173 298.592 15.179C301.777 15.2424 300.597 14.5905 302.278 13.6651C301.96 14.7676 302.964 15.3616 305.368 15.2065C306.813 15.1136 306.533 14.6603 307.445 14.2662C307.718 14.1475 308.762 14.4016 308.933 14.1681C309.495 13.4044 308.478 12.6602 310.977 12.8159C311.087 12.8239 310.767 13.2427 311.145 13.2414C313.583 13.2351 313.823 12.4597 316.442 12.1919C318.494 11.9819 322.184 12.197 324.531 12.1146C324.563 13.3279 326.757 12.9022 327.599 12.0076C329.121 11.9397 330.76 11.7822 332.237 11.7988C332.746 11.8042 332.437 12.1768 332.503 12.2104C333.521 12.7385 334.127 11.8824 334.453 11.8286C337.989 11.2803 340.928 11.7009 344.282 10.8717C344.401 10.8419 344.539 9.98829 345.488 10.541C345.549 10.5794 344.454 11.0371 346.053 10.9595C347.652 10.8818 350.692 11.1302 352.883 10.5918C353.413 10.462 354.724 9.68849 355.849 10.1484C355.999 10.2111 355.857 10.4628 356.075 10.5829C356.781 10.9648 357.093 10.0905 357.938 10.7587C358.782 11.427 360.473 11.8563 362.676 11.2082C362.746 11.1889 363.23 10.48 363.934 10.4434C365.057 10.3856 366.66 10.4188 367.832 10.3357C368.393 10.2957 368.006 9.90169 368.102 9.8875C371.86 9.39976 374.57 9.59213 378.623 9.48239C379.366 9.4631 381.456 8.7499 382.921 9.10432C384.529 9.49198 383.049 11.6534 386.636 10.9212C388.083 10.6275 389.757 7.89907 392.471 9.07206C397.538 8.39586 402.291 8.77025 407.362 7.95004C407.59 7.91347 408.267 7.1379 408.807 7.11155C409.609 7.07383 410.072 7.384 410.645 7.36796C413.049 7.3093 415.222 6.87135 417.536 6.76134C418.414 6.71883 418.131 7.09069 419.179 7.04004C420.226 6.9891 420.892 6.47973 422.324 6.60793C423.405 6.70632 424.539 7.57984 425.967 7.59462C425.958 6.65845 426.935 6.61212 428.653 6.24947C428.983 6.17931 428.603 5.87876 428.758 5.82883C429.389 5.61844 430.001 5.84755 430.598 5.62452C430.743 5.57083 430.729 5.25189 430.846 5.19002C431.845 4.65181 433.591 5.25414 433.891 5.35928C435.04 5.75791 435.534 5.30863 436.404 5.4376C437.272 5.56663 436.008 5.88574 437.015 5.93178C439.103 6.02671 441.761 5.79645 443.867 5.66974C444.706 5.61722 444.105 5.23059 444.225 5.2132C445.953 4.98876 447.739 5.32303 448.645 4.41158C449.996 6.52018 449.678 4.12889 452.189 4.4005C452.387 4.42281 452.705 5.44148 451.964 5.6439C451.224 5.84617 450.065 5.59897 449.039 5.90585C448.796 5.97803 447.449 7.04311 447.26 7.11483C445.782 7.67555 445.464 6.14269 445.378 6.06308C444.411 5.20683 442.755 6.36799 442.306 6.47075C440.248 6.94136 438.467 6.84244 436.744 7.19548C435.617 7.42456 435.574 8.44552 434.678 8.47449C431.702 8.57141 430.571 7.2272 427.855 8.64103C427.273 8.94278 427.944 10.0105 425.735 9.28383C425.597 9.23799 423.947 8.54838 423.059 9.11433C422.947 9.18566 422.973 9.50824 422.822 9.54562C421.81 9.7898 421.11 9.57847 420.003 9.77656C418.897 9.97463 417.568 10.2483 416.288 10.2243C415.516 10.2104 414.491 9.67506 414.114 9.55248C413.049 9.19793 411.984 9.96814 411.307 9.49761C410.624 9.02486 411.838 8.15574 410.117 7.93629C410.11 8.77924 410.023 9.64983 409.979 10.5001C406.254 10.7207 402.572 10.6955 398.839 10.9835C398.377 11.0201 398.881 11.4392 398.385 11.49C396.295 11.7023 394.444 11.5038 392.281 11.7777C390.606 11.9914 388.794 12.5927 387.044 12.8311C385.906 11.9435 383.319 12.4446 381.418 12.4842C380.752 12.4985 380.779 12.2392 380.301 12.1872C378.499 11.9976 379.391 12.7897 378.911 12.9559C376.855 13.6663 376.546 11.7587 374.079 11.972C373.949 11.9827 372.418 13.1134 372.202 13.1919C370.83 13.7015 371.946 12.8513 371.065 12.8346C369.456 12.8039 368.328 12.6342 366.472 13.06C365.93 13.1855 364.661 13.9115 363.565 13.4895C363.421 13.4343 363.475 13.0909 363.361 13.0787C361.302 12.8853 361.32 13.9516 360.18 14.3898C359.04 14.8278 357.193 14.215 356.813 14.0281C355.819 13.5454 357.531 13.7451 357.579 13.6879C358.145 13.0082 356.841 13.2063 355.836 13.2196C355.621 12.1873 354.224 12.344 354.793 13.2376C354.858 13.3351 355.631 13.1855 355.836 13.2196C355.025 14.3011 353.494 14.5354 351.729 13.6943C350.902 13.3 351.62 12.7273 349.214 13.0808C348.122 13.2408 348.595 13.9298 347.639 14.1904C345.456 14.7854 342.536 14.3093 340.261 14.568C339.436 14.6619 340.269 15.0005 339.706 15.0782C338.211 15.2856 336.867 15.0799 335.369 15.3322C335.233 15.3556 335.595 15.7443 335.126 15.781C331.574 16.0676 328.46 16.0122 324.747 16.2543C322.953 16.3715 319.761 16.8136 317.9 16.8929C314.675 17.0326 310.673 16.7009 307.931 17.031C306.143 17.2445 306.565 17.6292 305.814 17.9611C304.367 18.6038 301.676 17.8074 301.312 17.6805C301.301 17.6763 302.838 17.4756 302 17.3199C301.492 16.9122 301.329 17.6775 301.312 17.6805C301.073 17.5988 297.983 17.7127 297.375 17.8324C297.045 17.8977 297.258 18.2748 297.085 18.3015C292.984 18.9272 288.859 19.3038 284.664 19.4026C284.59 19.3997 284.672 18.9565 284.497 18.955C282.063 18.9239 280.548 19.5612 278.572 20.0119C276.596 20.4624 275.005 20.4629 273.773 19.7941C272.272 19.9895 270.088 19.804 268.831 19.6869C267.574 19.5698 267.457 20.4297 267.349 20.4539C263.971 21.22 261.965 20.867 258.418 21.0293C256.731 21.1051 253.4 21.4525 251.583 21.6677C250.147 21.8392 249.265 21.6987 247.946 21.915C247.768 21.9441 247.975 22.3096 247.921 22.3278C246.469 22.8793 247.119 21.9081 246.802 21.7637C245.653 21.2385 244.946 20.9651 243.068 21.3747C242.634 21.4687 241.449 22.8839 240.656 23.0153C239.626 23.1836 239.985 22.6807 238.907 22.8691C238.814 22.8848 238.853 23.1775 238.182 23.2096C235.067 23.3623 231.663 23.4191 228.431 23.6658C227.99 23.6984 228.587 24.1266 227.95 24.1814C224.959 24.4378 221.676 24.641 218.744 24.6187C218.022 24.6118 218.45 24.255 218.288 24.1685C217.292 23.6462 215.992 24.5897 215.769 24.621C210.455 25.3894 206.315 24.8927 200.896 25.6256C200.601 25.6671 198.381 26.734 197.311 26.0187C197.238 25.9713 196.177 25.2372 195.323 25.8452C195.27 25.8832 195.925 26.2538 194.828 26.2853C193.73 26.3168 191.986 26.7108 190.451 26.3584C189.965 26.2476 188.785 25.5235 187.406 26.2565C187.317 26.3072 185.219 27.8961 184.369 26.9542C184.231 26.799 184.294 25.7376 182.633 26.3911C182.316 26.5175 182.92 26.7128 182.076 26.9167C180.783 27.2305 179.031 27.0651 177.454 27.642C177.179 27.7438 176.033 28.5384 175.039 28.0605C174.883 27.9857 175.145 27.6151 174.636 27.6098C172.219 27.5827 169.716 27.9869 167.258 27.9079C166.387 27.8805 166.791 27.2828 165.879 27.1912C165.519 27.1549 165.015 27.1292 164.481 27.1314L163.41 20.982C164.208 20.8078 165.064 20.555 165.57 20.2468C166.408 19.7371 165.166 19.148 166.509 18.6895C172.346 16.6964 178.36 15.5342 184.296 13.9218C185.177 13.6827 184.361 13.5779 185.652 13.2032C190.412 11.8202 198.558 9.17993 202.883 8.66349C206.349 8.24951 202.294 9.84373 204.888 9.33757C206.139 9.09212 207.172 7.70057 207.458 7.58448C210.247 6.43799 212.378 6.31604 214.932 5.43825C215.46 5.25685 214.817 4.99555 215.267 4.84571C216.804 4.33023 218.493 4.04691 219.971 3.5889C220.634 3.38248 220.422 3.10354 221.043 2.95257C222.528 2.5877 223.865 2.34896 225.382 2.23459C225.52 2.22415 224.751 2.86597 225.842 2.57032C227.609 2.09071 229.876 1.75792 231.815 0.880511C232.33 0.64628 232.239 0.040911 233.243 0.00829935L234.63 8.14349C234.515 8.12186 234.386 8.08939 234.243 8.04401C233.955 7.95342 234.261 7.03733 232.745 7.90395C232.491 8.04815 229.93 9.24805 228.603 8.65325C228.252 8.49675 227.342 7.81671 226.599 7.97674C226.498 8.00119 226.929 8.37692 226.31 8.45322C224.128 8.7152 221.831 8.81018 219.588 9.07049C218.989 9.14078 219.909 9.50119 219.016 9.59275C216.56 9.84513 213.479 9.92412 211.063 9.93895C210.173 9.94364 210.766 9.56381 210.699 9.53036C209.624 8.98551 209.059 9.84188 208.717 9.91035C206.59 10.3251 204.934 10.0381 202.963 10.2585C202.42 10.3183 202.83 10.6859 202.723 10.7272C201.618 11.1352 202.414 10.3832 201.697 10.3486C199.687 10.2493 197.463 10.4143 195.447 10.5853C194.706 10.6487 195.567 11.0518 194.902 11.1035C190.967 11.4179 186.869 11.6202 183.009 11.6011C182.282 11.5967 182.717 11.2204 182.561 11.1498C181.488 10.6547 180.009 11.5066 179.663 11.6C178.088 12.0265 177.45 11.7551 176.045 11.8971C169.183 12.5965 160.677 12.9017 154.176 13.165C145.705 13.5101 139.119 13.5721 131.055 14.1423C130.542 14.1781 131.087 14.6113 130.646 14.6481C124.945 15.1024 119.314 15.2581 113.603 15.7352C113.135 15.7735 113.837 16.173 113.086 16.2493C111.545 16.4089 109.586 16.5024 108.016 16.4556C107.25 16.4336 108.249 15.9948 107.478 15.9803C105.684 15.9459 103.768 16.0294 101.938 16.21C101.159 16.2878 102.364 16.6672 101.349 16.7332C94.4402 17.1925 87.6568 17.6772 80.6372 17.5134C80.1559 17.5021 79.6809 16.6127 78.6734 16.8492C78.6119 17.1076 78.634 17.406 78.6168 17.6793C68.5638 18.429 58.5857 18.7094 48.4927 19.2656C48.0672 19.2892 48.8315 19.7297 48.0078 19.7778C43.2404 20.0565 38.6194 20.4685 33.7145 20.2793C33.2279 20.2612 33.4249 19.3938 32.007 19.6083C31.7569 19.6469 29.6164 19.8894 29.0723 20.1078C28.9986 20.1402 29.4142 20.5146 28.723 20.5677C24.7056 20.8694 20.4863 21.0313 16.4576 21.029C15.8074 21.0278 16.4719 20.5627 16.0085 20.5582C12.7219 20.5296 9.18106 21.0653 6.03037 20.8682C3.92132 20.7347 4.65246 19.9557 3.49674 19.3014C3.33329 19.2091 2.03596 19.2707 1.94375 18.8552C1.70836 17.8106 2.26699 16.6179 1.94188 15.5089C1.87292 15.27 0.152402 15.635 1.14522 14.988C1.21468 14.9446 2.46175 14.6748 2.75987 14.4577C2.96749 14.3074 2.55292 13.9041 2.98278 13.702C3.41262 13.5 3.91798 13.8286 4.63572 13.5784C5.35297 13.3256 5.00296 12.8595 6.45699 12.7146ZM263.169 19.1661C261.99 18.8361 261.921 20.3396 263.142 19.899C263.201 19.8759 263.23 19.1821 263.169 19.1661ZM402.518 9.56865C400.968 9.01168 400.002 10.0486 401.099 10.4855C402.195 10.9219 402.99 9.73734 402.518 9.56865ZM418.101 8.03922C416.306 7.63855 416.171 9.77303 418.027 9.21867C418.135 9.18713 418.205 8.06244 418.101 8.03922ZM8.64345 18.7866C8.62635 18.7677 7.69332 18.8043 7.67223 18.8253C7.20446 19.3291 9.07013 19.2557 8.64345 18.7866ZM433.561 6.47521C432.992 6.2259 431.433 6.66256 432.139 6.97262C432.708 7.22202 434.269 6.78528 433.561 6.47521ZM202.976 21.6099C202.957 21.5889 202.288 21.6138 202.31 21.7385C202.382 22.1403 203.304 21.9636 202.976 21.6099ZM459.895 4.68171C455.999 4.86345 453.522 3.27411 457.773 3.1867C458.543 3.17083 456.157 3.85515 457.144 3.94712C458.95 4.11415 460.063 2.93703 461.926 3.40258C462.264 3.48803 460.118 4.67523 459.889 4.68461C459.891 4.68365 459.893 4.68267 459.895 4.68171ZM262.386 17.4185C262.361 17.4003 261.436 17.4437 261.415 17.4647C260.946 17.972 262.811 17.8849 262.386 17.4185ZM164.732 24.6121C164.793 24.6386 166.871 24.0867 166.928 24.0301C167.794 22.9758 163.591 24.0895 164.732 24.6121ZM324.57 12.1444C325.547 11.6001 326.75 11.4629 327.594 12.0073C326.59 12.0429 325.58 12.106 324.57 12.1444Z" fill="#FF8C00"/>
</svg>
