<svg width="241" height="29" viewBox="0 0 241 29" fill="none" xmlns="http://www.w3.org/2000/svg">
<path d="M3.46344 13.2342C5.2311 12.8994 7.5837 12.7686 9.38141 12.7539C9.94475 12.7486 9.69327 13.0444 10.0835 13.0527C10.8467 13.0684 11.5318 12.8587 12.2884 12.895C12.5393 12.9084 12.2811 13.3608 12.543 13.3652C13.9783 13.3866 15.3037 13.1262 16.7463 13.0498C23.8522 12.6743 30.8056 12.0317 37.9693 11.3988C40.3313 11.1898 43.2375 11.2384 45.6508 10.7926C45.9324 10.7402 45.721 10.3936 45.7715 10.3572C46.5656 9.7977 46.369 10.5692 46.9336 10.6036C49.174 10.7383 51.6196 10.4907 53.7164 10.1059C54.6084 9.94116 53.6232 9.3179 54.5754 9.62172C54.6415 9.64206 54.4582 10.0571 54.7095 10.0701C55.2794 10.099 56.3321 9.90726 56.769 9.88813C57.6112 9.85323 57.7489 9.8334 58.5393 9.74681C59.6202 9.63183 60.9268 9.67708 62.0752 9.4555C62.3202 9.40704 61.9469 9.04626 62.3335 8.933C62.7204 8.81981 63.7686 8.73327 64.1315 8.78665C64.4944 8.84006 64.3806 9.17056 64.4512 9.23517C65.0337 9.78207 66.145 8.80361 66.298 8.76495C69.091 8.08476 71.5762 8.28285 74.2361 7.97498C76.2553 7.74025 78.3964 7.3336 80.3203 7.13384C82.6127 6.89739 84.5777 6.88979 86.7973 6.59641C87.0317 6.56591 86.7026 6.12904 86.9887 6.09084C90.028 5.68539 93.0582 5.38798 96.127 5.35489C96.4349 5.35198 96.0903 5.80853 96.4007 5.83023C98.2999 5.95397 101.337 6.42698 102.235 4.50852C103.503 4.43327 105.041 4.32927 106.21 4.56043C106.964 4.70906 106.31 5.23857 107.18 4.94446C107.377 4.87865 107.07 4.51634 107.368 4.44733C108.623 4.15714 110.027 4.12466 111.261 3.77695C111.512 3.7053 111.402 3.36167 111.467 3.28999C112.017 2.70692 113.129 3.43787 113.357 3.474C115.093 3.73941 116.302 3.41695 117.872 3.24746C118.236 3.20832 117.751 2.78551 118.1 2.73088C119.461 2.52235 120.867 2.37094 122.248 2.31083L123.559 6.43255C123.146 6.62173 122.733 6.80079 122.32 6.96768C121.947 7.11688 122.074 6.58569 121.886 6.63881C121.06 6.87736 121.264 7.63766 120.479 7.8794C120.314 7.93123 120.231 7.5812 120.186 7.56269C119.474 7.27116 119.512 8.21623 119.412 8.29249C118.152 9.27383 116.844 8.98237 115.569 9.82372C115.417 9.92516 115.988 10.1126 115.548 10.3742C112.615 12.1193 109.394 13.747 106.264 15.0615C105.778 15.2664 105.948 14.7973 105.9 14.7776C105.123 14.4795 105.226 15.3929 105.091 15.5032C104.018 16.3542 102.569 16.3348 102.251 17.6641C97.0675 20.1036 92.3491 23.3378 86.9395 25.267C86.8712 25.2924 86.7832 24.8629 86.6479 24.9152C86.5208 24.964 86.4073 25.0114 86.3058 25.058L85.9186 23.8689C87.2404 23.7929 86.9633 23.2128 87.9175 22.3493C88.1783 22.114 89.1724 22.9551 89.2585 23.0151C89.5725 23.2364 89.361 23.8921 89.4615 23.9298C90.2901 24.2211 89.8995 22.1933 90.9491 22.0572C90.9823 22.0564 90.893 22.4504 90.9859 22.4765C91.2748 22.5586 91.5269 22.3741 91.8114 22.469C92.463 22.6896 92.8095 23.6548 93.6712 22.9559C93.78 22.8655 93.4494 21.7294 94.3936 21.6632C94.7701 21.6378 96.4213 21.4046 96.8944 21.4199C97.367 21.4352 97.0974 21.8499 97.1325 21.8618C98.4435 22.195 97.997 22.4608 98.7163 23.1117C99.4352 23.7598 99.0376 22.044 99.2673 21.8171C99.4975 21.5908 100.465 21.8804 100.708 21.9932C100.951 22.106 100.701 22.3795 100.911 22.434C102.303 22.7873 101.381 21.4962 101.782 21.1641C102.726 20.3781 103.694 21.5637 104.652 21.5685C104.911 21.5698 104.665 21.303 104.889 21.2463C105.774 21.0255 106.366 21.3579 107.341 20.8572C107.501 20.7755 108.227 19.8939 108.836 20.3936C108.922 20.4658 108.748 20.8148 109.14 20.8374C109.727 20.8715 110.767 20.8087 111.368 20.622C111.812 20.4839 111.223 20.0218 111.816 20.1125C112.079 20.1531 111.648 20.5235 112.14 20.574C112.629 20.6248 113.841 20.4546 114.302 20.3843C114.761 20.3139 114.457 19.945 114.491 19.9131C114.696 19.7291 115.556 19.4213 115.634 19.4117C119.572 18.8538 123.296 19.0613 127.107 18.3419C127.406 18.286 127.151 17.8885 127.196 17.8756C128.205 17.5651 127.536 18.7957 128.306 19.0795C128.091 18.2338 128.536 18.3345 129.251 18.1465C129.595 18.0552 129.361 17.7471 129.389 17.709C129.843 17.1367 130.289 17.7427 130.399 17.8642C130.806 18.3109 131.106 17.6823 131.382 17.9804C131.658 18.276 131.182 18.8285 131.878 18.7324C132.034 18.3996 131.413 17.6627 131.925 17.4641C133.858 16.7138 137.666 16.8636 139.28 16.722C140.89 16.5807 141.4 16.4572 142.348 16.4479C144.06 16.4313 143.365 15.9147 144.377 15.5067C145.392 15.0983 145.071 16.6314 145.262 16.9273C145.451 17.2234 145.571 16.878 145.778 17.0276C145.984 17.1771 145.614 17.4429 146.054 17.4522C146.495 17.4614 147.604 16.748 147.715 16.3985C147.949 15.658 147.322 14.9934 148.499 15.1034C148.567 15.1103 148.403 15.5236 148.66 15.5301C150.699 15.5689 152.78 15.3191 154.812 15.3239C155.092 15.3252 154.901 15.7861 155.065 15.7917C156.766 15.8513 156.077 15.2044 156.886 14.2828C156.819 15.379 157.409 15.9684 158.674 15.8116C159.434 15.7177 159.243 15.2673 159.692 14.8746C159.827 14.7563 160.406 15.0078 160.475 14.7754C160.703 14.0157 160.093 13.277 161.438 13.429C161.497 13.4368 161.366 13.8535 161.566 13.8518C162.864 13.8429 162.919 13.0718 164.288 12.8027C165.361 12.5917 167.345 12.8015 168.587 12.717C168.716 13.9231 169.844 13.4975 170.209 12.6073C171.013 12.5381 171.871 12.3798 172.659 12.3947C172.93 12.3994 172.8 12.7702 172.838 12.8035C173.429 13.3274 173.672 12.4757 173.841 12.4218C175.672 11.873 177.275 12.2878 178.983 11.4598C179.044 11.4301 179.039 10.5814 179.595 11.1299C179.631 11.1679 179.09 11.6241 179.934 11.5452C180.778 11.4662 182.419 11.7098 183.535 11.1722C183.805 11.0426 184.432 10.2722 185.073 10.7282C185.158 10.7903 185.106 11.0407 185.233 11.1599C185.644 11.5388 185.73 10.6692 186.241 11.3326C186.752 11.996 187.692 12.4209 188.804 11.7742C188.84 11.755 189.032 11.0497 189.403 11.0126C189.996 10.9539 190.852 10.9852 191.468 10.9013C191.763 10.8609 191.52 10.4696 191.57 10.4554C193.525 9.96645 194.985 10.1547 197.132 10.0412C197.525 10.0212 198.572 9.30994 199.385 9.66067C200.276 10.0443 199.688 12.1945 201.53 11.4627C202.273 11.1692 202.911 8.45506 204.465 9.61814C207.099 8.94039 209.663 9.30737 212.286 8.48646C212.404 8.44986 212.692 7.67814 212.977 7.65135C213.401 7.61298 213.676 7.92081 213.979 7.90424C215.253 7.8433 216.369 7.40555 217.591 7.29366C218.054 7.25044 217.938 7.62042 218.491 7.56892C219.043 7.51713 219.351 7.01005 220.125 7.13592C220.709 7.23254 221.393 8.09966 222.155 8.11279C222.064 7.18216 222.579 7.13504 223.46 6.77266C223.629 6.70256 223.399 6.40419 223.477 6.35439C223.793 6.14455 224.14 6.37163 224.437 6.14927C224.51 6.09574 224.473 5.77871 224.529 5.71707C225.011 5.18095 225.996 5.7778 226.165 5.882C226.814 6.27702 227.035 5.82985 227.51 5.9571C227.984 6.08443 227.341 6.40302 227.881 6.44769C229.001 6.53978 230.395 6.30798 231.503 6.17971C231.946 6.12658 231.59 5.74289 231.652 5.72548C232.551 5.50048 233.533 5.8308 233.93 4.92376C234.844 7.01841 234.454 4.64162 235.815 4.90886C235.923 4.93083 236.186 5.94313 235.811 6.14516C235.436 6.34704 234.796 6.10257 234.278 6.40876C234.156 6.48077 233.537 7.54104 233.443 7.61254C232.708 8.17156 232.397 6.64812 232.344 6.56907C231.75 5.71893 230.977 6.87505 230.747 6.97769C229.695 7.44776 228.738 7.35138 227.854 7.70422C227.275 7.93317 227.346 8.94815 226.873 8.97793C225.298 9.07753 224.571 7.74251 223.257 9.15095C222.975 9.45156 223.43 10.5122 222.188 9.79227C222.11 9.74685 221.168 9.06311 220.748 9.6267C220.695 9.69773 220.738 10.0184 220.661 10.0557C220.146 10.2995 219.754 10.0902 219.183 10.2883C218.612 10.4865 217.93 10.76 217.247 10.7376C216.835 10.7245 216.24 10.1935 216.028 10.072C215.428 9.72076 214.932 10.4876 214.528 10.0206C214.121 9.55136 214.687 8.68605 213.751 8.46978C213.825 9.30776 213.859 10.1733 213.914 11.0186C211.952 11.2419 209.991 11.221 208.031 11.5113C207.788 11.5482 208.095 11.9642 207.836 12.0153C206.743 12.2286 205.739 12.0333 204.613 12.308C203.742 12.5223 202.833 13.122 201.924 13.3609C201.236 12.4798 199.905 12.9807 198.897 13.0222C198.544 13.0371 198.534 12.7793 198.275 12.7282C197.299 12.5417 197.847 13.3281 197.607 13.4939C196.578 14.2023 196.237 12.3063 194.944 12.5211C194.876 12.5318 194.165 13.6575 194.058 13.7358C193.375 14.2439 193.89 13.3975 193.42 13.3818C192.561 13.3531 191.945 13.1856 190.996 13.6109C190.719 13.7363 190.111 14.4594 189.488 14.0411C189.407 13.9864 189.404 13.6449 189.342 13.6329C188.228 13.4429 188.336 14.503 187.77 14.9397C187.204 15.3764 186.164 14.7692 185.945 14.5839C185.371 14.1051 186.301 14.3017 186.321 14.2449C186.559 13.5686 185.884 13.7669 185.35 13.7812C185.14 12.7553 184.411 12.9126 184.797 13.8003C184.84 13.8971 185.238 13.7476 185.35 13.7812C185.018 14.8572 184.225 15.0919 183.208 14.2576C182.732 13.8666 183.061 13.2965 181.813 13.6505C181.247 13.8107 181.562 14.4951 181.077 14.7553C179.971 15.3492 178.372 14.879 177.186 15.1387C176.755 15.233 177.23 15.5686 176.937 15.6465C176.161 15.8544 175.426 15.6513 174.652 15.9037C174.582 15.9271 174.811 16.3131 174.565 16.3502C172.7 16.6389 171.038 16.5873 169.084 16.832C168.14 16.9505 166.483 17.3935 165.499 17.4743C163.796 17.6168 161.635 17.2914 160.207 17.6225C159.275 17.8367 159.534 18.2187 159.166 18.5494C158.455 19.1899 156.949 18.4012 156.744 18.2755C156.737 18.2712 157.537 18.0701 157.077 17.9162C156.768 17.5115 156.753 18.2724 156.744 18.2755C156.609 18.1945 154.975 18.311 154.663 18.4307C154.493 18.496 154.641 18.8707 154.552 18.8974C152.427 19.5239 150.266 19.9028 148.043 20.0056C148.003 20.0028 148.005 19.562 147.913 19.5608C146.614 19.5326 145.867 20.1677 144.857 20.6179C143.847 21.068 143 21.0701 142.282 20.4067C141.502 20.6026 140.322 20.4205 139.642 20.3055C138.962 20.1904 138.98 21.0454 138.924 21.0695C137.197 21.8348 136.097 21.4861 134.224 21.6514C133.334 21.7285 131.593 22.0775 130.645 22.2935C129.897 22.4655 129.415 22.3268 128.733 22.5433C128.641 22.5724 128.785 22.9355 128.758 22.9537C128.036 23.5035 128.292 22.5373 128.11 22.3941C127.45 21.8733 127.048 21.6023 126.087 22.0115C125.865 22.1055 125.365 23.5136 124.955 23.645C124.422 23.8135 124.567 23.3132 124.01 23.5016C123.962 23.5173 124.01 23.8083 123.656 23.8409C122.012 23.9961 120.206 24.0563 118.509 24.3051C118.277 24.3379 118.634 24.763 118.3 24.8181C116.732 25.0763 115.003 25.2819 113.441 25.263C113.056 25.2568 113.251 24.9017 113.157 24.8159C112.578 24.2978 111.973 25.2371 111.858 25.2685C109.101 26.0381 106.851 25.5489 104.035 26.2834C103.882 26.325 102.799 27.388 102.163 26.6782C102.12 26.6311 101.487 25.9025 101.089 26.5078C101.065 26.5456 101.448 26.9133 100.866 26.9458C100.285 26.9784 99.3935 27.372 98.5436 27.0233C98.2747 26.9137 97.5797 26.1952 96.9139 26.9253C96.8708 26.9758 95.9016 28.5576 95.362 27.6222C95.2742 27.4681 95.2092 26.4129 94.386 27.0644C94.229 27.1904 94.5686 27.3838 94.1382 27.5875C93.479 27.9009 92.5311 27.7383 91.7452 28.3135C91.6084 28.415 91.072 29.2062 90.4987 28.7322C90.4089 28.658 90.5137 28.2894 90.2426 28.2846C89.014 28.2615 87.7805 28.6278 86.5286 28.5966L84.0151 20.8776C84.0732 20.8565 84.1317 20.8363 84.1906 20.8171C84.634 20.6718 84.7019 21.2837 85.1946 21.1878C85.6873 21.0917 86.6028 20.7573 86.9166 20.2887C87.2305 19.8199 86.315 19.287 86.9377 18.863C89.6449 17.02 92.7326 15.9351 95.6245 14.4392C96.0535 14.2174 95.5465 14.125 96.1674 13.7777C98.4561 12.4961 102.281 10.053 104.609 9.56433C106.474 9.1726 104.663 10.6443 105.993 10.1719C106.635 9.94281 106.766 8.66811 106.892 8.56097C108.121 7.50309 109.312 7.38329 110.495 6.57168C110.739 6.40396 110.28 6.16791 110.49 6.02931C111.206 5.55254 112.087 5.28716 112.788 4.8631C113.103 4.672 112.886 4.41814 113.195 4.27783C113.931 3.93879 114.624 3.71551 115.463 3.60506C115.539 3.59499 115.31 4.18407 115.842 3.9098C116.702 3.46487 117.901 3.15203 118.729 2.3432C118.973 2.10208 118.626 1.44134 119.497 1.55188C119.679 1.57466 119.943 2.45197 120.297 1.37513C120.316 1.31954 120.397 1.12963 120.528 0.901556L122.97 8.57627C122.507 8.9378 121.743 9.3826 121.222 8.97458C121.023 8.81917 120.482 8.14324 120.101 8.30323C120.049 8.32768 120.31 8.7012 119.987 8.77775C118.848 9.04062 117.635 9.13741 116.464 9.39867C116.152 9.46923 116.671 9.82703 116.203 9.91903C114.919 10.1726 113.287 10.2543 112.004 10.2714C111.531 10.2769 111.815 9.89831 111.777 9.86508C111.16 9.32386 110.931 10.1767 110.755 10.2452C109.658 10.6601 108.754 10.3761 107.725 10.5974C107.441 10.6574 107.689 11.0228 107.636 11.0641C107.082 11.4713 107.443 10.722 107.059 10.6882C105.982 10.5914 104.814 10.7578 103.756 10.93C103.367 10.9938 103.858 11.3942 103.509 11.4462C101.443 11.763 99.2814 11.9684 97.2279 11.9531C96.8412 11.9494 97.041 11.5746 96.9524 11.5044C96.3408 11.0127 95.6254 11.862 95.449 11.9554C94.6471 12.3813 94.2855 12.1118 93.5505 12.2546C89.9605 12.9574 85.4639 13.2695 82.0296 13.5379C77.5547 13.8897 74.0586 13.9578 69.8189 14.5332C69.5494 14.5694 69.875 14.9999 69.6434 15.037C66.6502 15.4947 63.6701 15.6552 60.6735 16.1357C60.4275 16.1743 60.8342 16.5711 60.4411 16.6478C59.6351 16.8082 58.6015 16.9032 57.7627 16.8581C57.3536 16.837 57.8486 16.3992 57.4377 16.3856C56.481 16.3531 55.4692 16.4381 54.5112 16.6196C54.1037 16.6978 54.7756 17.0742 54.2418 17.141C50.6069 17.6048 47.0408 18.0939 43.2956 17.9378C43.0388 17.927 42.7127 17.0423 42.1966 17.2786C42.1853 17.5359 42.2218 17.8328 42.2353 18.1048C36.9531 18.8608 31.6718 19.1496 26.3524 19.7131C26.1281 19.737 26.5709 20.1747 26.137 20.2233C23.6256 20.5055 21.2032 20.92 18.58 20.7365C18.3198 20.719 18.3528 19.8555 17.6167 20.0703C17.487 20.109 16.3692 20.3524 16.098 20.5703C16.0615 20.6027 16.3135 20.9749 15.9504 21.0284C13.8397 21.3326 11.6101 21.4979 9.46818 21.4995C9.12241 21.499 9.43715 21.0354 9.19046 21.0314C7.44091 21.0061 5.60289 21.5428 3.91163 21.3497C2.77939 21.2189 3.10358 20.4428 2.43502 19.7928C2.34049 19.7011 1.65592 19.7637 1.57251 19.3503C1.3609 18.3108 1.55912 17.1232 1.29449 16.0197C1.23805 15.782 0.353621 16.147 0.827854 15.5021C0.861181 15.4588 1.50181 15.1891 1.64231 14.9727C1.74025 14.823 1.48647 14.422 1.69826 14.2204C1.91004 14.0189 2.2059 14.3455 2.56674 14.0957C2.92711 13.8434 2.70246 13.3799 3.46344 13.2342ZM136.581 19.794C135.923 19.4672 136.025 20.9619 136.634 20.5225C136.663 20.4995 136.615 19.8098 136.581 19.794ZM209.857 10.1008C208.981 9.54883 208.563 10.5807 209.187 11.0138C209.811 11.4464 210.124 10.268 209.857 10.1008ZM218.009 8.56337C217.017 8.16703 217.143 10.289 218.079 9.73592C218.134 9.70445 218.067 8.58633 218.009 8.56337ZM5.12845 19.2754C5.1178 19.2566 4.62481 19.2939 4.61534 19.3148C4.40838 19.8168 5.39411 19.7418 5.12845 19.2754ZM226.093 6.99168C225.767 6.74447 224.978 7.18026 225.382 7.48771C225.708 7.73502 226.499 7.29915 226.093 6.99168ZM104.771 22.2892C104.758 22.2684 104.405 22.2938 104.428 22.4178C104.504 22.8171 104.978 22.6405 104.771 22.2892ZM239.943 5.17998C237.886 5.36491 236.421 3.78768 238.675 3.69613C239.083 3.67952 237.877 4.3624 238.411 4.45275C239.387 4.61681 239.871 3.44543 240.905 3.90619C241.093 3.99078 240.061 5.17329 239.94 5.18287C239.941 5.18191 239.942 5.18094 239.943 5.17998ZM136.002 18.0575C135.987 18.0395 135.499 18.0836 135.49 18.1046C135.287 18.6094 136.272 18.5208 136.002 18.0575ZM87.8935 24.278C87.9375 24.3019 88.9542 23.7897 88.9681 23.7378C89.1156 22.7718 87.0588 23.8052 87.8935 24.278ZM168.61 12.7466C169.08 12.2044 169.707 12.0668 170.207 12.607C169.676 12.6435 169.144 12.7073 168.61 12.7466Z" fill="white"/>
</svg>
