<svg width="144" height="41" viewBox="0 0 144 41" fill="none" xmlns="http://www.w3.org/2000/svg">
<path d="M91 4C91 6.20914 89.433 8 87.5 8C85.567 8 84 6.20914 84 4C84 1.79086 85.567 0 87.5 0C89.433 0 91 1.79086 91 4Z" fill="#FF8C00"/>
<g filter="url(#filter0_d_1393_3817)">
<path d="M95.1314 1.47177C95.2459 1.1147 95.6283 0.918094 95.9853 1.03263L102.528 3.13141C102.885 3.24595 103.082 3.62825 102.967 3.98532L100.869 10.5282C100.754 10.8853 100.372 11.0819 100.015 10.9674L93.4718 8.86859C93.1147 8.75405 92.9181 8.37175 93.0326 8.01468L95.1314 1.47177Z" fill="#003366"/>
</g>
<path d="M72.153 9.93657C68.3747 11.0274 62.6498 13.5781 62.6498 13.5781C62.6498 13.5781 61.8019 14.2515 62.0432 14.771C62.3507 15.4332 63.9978 15.2733 63.9978 15.2733L72.153 13.8292C72.153 13.8292 75.6363 13.1202 77.4775 13.4525C78.6388 13.6622 79.0247 13.8504 79.769 14.4571C81.9258 16.2151 84.8913 19.4799 84.8913 19.4799C84.8913 19.4799 86.1544 20.8492 87.2503 20.9867C88.2154 21.1079 89.4744 20.3589 89.4744 20.3589L96.8209 13.4525C96.8209 13.4525 97.2239 12.4293 96.8209 12.0085C96.4935 11.6667 95.6077 11.6945 95.6077 11.6945L87.8569 15.2733L85.7001 11.0039C85.7001 11.0039 84.6319 9.02463 83.2064 8.36694C81.9977 7.80931 79.769 8.05301 79.769 8.05301C79.769 8.05301 75.0923 9.08792 72.153 9.93657Z" fill="#FF8C00"/>
<path fill-rule="evenodd" clip-rule="evenodd" d="M59.1382 38.2084L73.4599 24.7802C73.7052 24.5502 74.0762 24.5386 74.3346 24.7528L77.0994 27.0453C77.4018 27.296 77.4369 27.7577 77.1762 28.0541L73.0104 32.7885C73.0104 32.7885 72.3157 33.8657 72.6737 34.3867C72.9976 34.858 74.0541 34.5044 74.3533 34.4043L74.3535 34.4042C74.4044 34.3872 74.4333 34.3775 74.4329 34.3805C74.4236 34.3869 74.4207 34.389 74.4246 34.3867C74.4274 34.385 74.4295 34.3837 74.4308 34.3827C74.4322 34.3817 74.4328 34.381 74.4329 34.3805C74.4876 34.3432 74.7639 34.1604 75.1864 33.8809C77.126 32.5975 82.1482 29.2746 82.9769 28.6194C83.1822 28.4571 83.3823 28.3128 83.5719 28.1761C84.3431 27.6201 84.94 27.1897 84.9971 26.1874C85.0559 25.1577 84.1891 23.8944 84.1891 23.8944C84.1891 23.8944 80.8799 18.2882 77.657 16.3899C77.3986 16.2378 77.1645 16.0866 76.9421 15.943C76.142 15.4263 75.4946 15.0082 74.4246 15.0002C73.0328 14.9898 72.0951 15.3602 71.1249 16.3899C70.6388 16.9058 70.1559 17.4401 69.678 17.9881H61.7645C61.3554 17.9881 61.0237 18.3303 61.0237 18.7524C61.0237 19.1746 61.3554 19.5168 61.7645 19.5168H74.9633C75.3724 19.5168 75.7041 19.859 75.7041 20.2811C75.7041 20.7033 75.3724 21.0455 74.9633 21.0455H52.7408C52.3316 21.0455 52 21.3877 52 21.8098C52 22.2319 52.3316 22.5742 52.7408 22.5742H65.9925L65.9912 22.576C66.3762 22.6033 66.6804 22.9342 66.6804 23.3385C66.6804 23.7602 66.3494 24.1021 65.9409 24.1028H60.1483C59.7392 24.1028 59.4075 24.445 59.4075 24.8672C59.4075 25.2893 59.7392 25.6315 60.1483 25.6315H66.7697C66.96 25.7699 67.0844 25.9984 67.0844 26.2569C67.0844 26.679 66.7528 27.0212 66.3437 27.0212H54.4916C54.0825 27.0212 53.7509 27.3634 53.7509 27.7856C53.7509 28.2077 54.0825 28.5499 54.4916 28.5499H62.8419C63.251 28.5499 63.5827 28.8921 63.5827 29.3143C63.5827 29.7364 63.251 30.0786 62.8419 30.0786H56.7812C56.3721 30.0786 56.0405 30.4208 56.0405 30.8429C56.0405 31.2651 56.3721 31.6073 56.7812 31.6073H59.8688C58.6598 33.5551 57.8026 35.0364 57.4334 35.6744L57.433 35.6752C57.3434 35.83 57.2826 35.935 57.2526 35.9849C57.2362 36.0121 57.2194 36.0399 57.2022 36.0683L57.2008 36.0706L57.2007 36.0708L57.1991 36.0734L57.1988 36.0739C56.776 36.7721 56.1359 37.8292 56.7812 38.6948C57.4546 39.5981 59.1382 38.2084 59.1382 38.2084ZM68.6333 22.5742H70.1148C70.5239 22.5742 70.8555 22.9164 70.8555 23.3385C70.8555 23.7606 70.5239 24.1028 70.1148 24.1028H68.6333C68.2241 24.1028 67.8925 23.7606 67.8925 23.3385C67.8925 22.9164 68.2241 22.5742 68.6333 22.5742Z" fill="#FF8C00"/>
<path d="M54.963 18.7524C54.963 18.3303 55.2947 17.9881 55.7038 17.9881H58.2627C58.6718 17.9881 59.0035 18.3303 59.0035 18.7524C59.0035 19.1746 58.6718 19.5168 58.2627 19.5168H55.7038C55.2947 19.5168 54.963 19.1746 54.963 18.7524Z" fill="#FF8C00"/>
<path d="M96.7935 37.0064C95.8831 37.0064 95.175 36.9466 94.6692 36.8269C94.1778 36.7073 93.8382 36.5427 93.6503 36.3333C93.4624 36.109 93.3613 35.8622 93.3468 35.5929C93.3468 35.1741 93.5853 34.8226 94.0622 34.5385C94.5535 34.2543 95.4495 34.0748 96.7502 34L96.4033 34.4263C96.2444 33.6635 96.1288 32.7735 96.0565 31.7564C95.9842 30.7393 95.9553 29.6848 95.9698 28.5929C95.9842 27.5011 96.0348 26.4615 96.1215 25.4744C96.2082 24.4722 96.3311 23.6197 96.4901 22.9167L98.376 22.7821C98.058 22.9167 97.6606 23.0363 97.1837 23.141C96.7068 23.2308 96.2155 23.2756 95.7097 23.2756C94.7848 23.2756 94.0983 23.1709 93.6503 22.9615C93.2168 22.7521 93 22.4605 93 22.0865C93 21.4284 93.383 20.9199 94.1489 20.5609C94.9293 20.187 96.1215 20 97.7257 20C99.6333 20 101.237 20.3291 102.538 20.9872C103.853 21.6303 104.85 22.5353 105.53 23.7019C106.209 24.8536 106.548 26.1998 106.548 27.7404C106.548 29.0865 106.317 30.328 105.855 31.4647C105.392 32.5865 104.727 33.5662 103.86 34.4038C103.008 35.2265 101.982 35.8697 100.782 36.3333C99.5971 36.7821 98.2676 37.0064 96.7935 37.0064ZM99.8717 33.5513C100.363 33.5513 100.883 33.3494 101.432 32.9455C101.996 32.5267 102.473 31.9209 102.863 31.1282C103.253 30.3205 103.448 29.3259 103.448 28.1442C103.448 27.2767 103.326 26.5214 103.08 25.8782C102.849 25.2201 102.545 24.6741 102.17 24.2404C101.794 23.8066 101.396 23.485 100.977 23.2756C100.558 23.0513 100.161 22.9391 99.785 22.9391C99.4815 22.9391 99.2431 23.1335 99.0697 23.5224C98.9107 23.9113 98.7951 24.4947 98.7228 25.2724C98.6506 26.0353 98.6144 26.985 98.6144 28.1218C98.6144 29.8868 98.7011 31.2329 98.8746 32.1603C99.048 33.0876 99.3804 33.5513 99.8717 33.5513Z" fill="#FF8C00"/>
<path d="M108.937 26.3718C108.937 24.9359 109.067 23.9038 109.327 23.2756C109.587 22.6325 109.956 22.3109 110.433 22.3109C110.809 22.3109 111.105 22.4754 111.322 22.8045C111.538 23.1186 111.697 23.515 111.798 23.9936C111.9 24.4573 111.95 24.9284 111.95 25.4071L111.842 25.3622C112.088 24.5545 112.463 23.859 112.969 23.2756C113.489 22.6923 114.111 22.4006 114.833 22.4006C115.686 22.4006 116.315 22.7671 116.719 23.5C117.124 24.2179 117.326 25.1154 117.326 26.1923C117.326 27.6282 117.167 28.6303 116.849 29.1987C116.531 29.7671 116.105 30.0513 115.57 30.0513C115.18 30.0513 114.891 29.8868 114.703 29.5577C114.53 29.2286 114.472 28.6453 114.53 27.8077C114.588 26.9252 114.537 26.312 114.378 25.9679C114.219 25.6239 113.966 25.4519 113.619 25.4519C113.2 25.4519 112.853 25.7286 112.579 26.2821C112.319 26.8205 112.189 27.4861 112.189 28.2788C112.189 28.5929 112.225 28.9893 112.297 29.4679C112.369 29.9466 112.449 30.4701 112.536 31.0385C112.622 31.5919 112.702 32.1453 112.774 32.6987C112.846 33.2521 112.882 33.7607 112.882 34.2244C112.882 35.047 112.76 35.6378 112.514 35.9968C112.268 36.3558 111.921 36.5353 111.473 36.5353C110.968 36.5353 110.577 36.3707 110.303 36.0417C110.028 35.6976 109.819 35.1442 109.674 34.3814C109.558 33.6934 109.443 32.8782 109.327 31.9359C109.212 30.9936 109.118 30.0288 109.045 29.0417C108.973 28.0545 108.937 27.1645 108.937 26.3718Z" fill="#FF8C00"/>
<path d="M124.514 36.5577C123.358 36.5577 122.346 36.2959 121.479 35.7724C120.627 35.234 119.962 34.4712 119.485 33.484C119.023 32.4968 118.791 31.3226 118.791 29.9615C118.791 28.5406 119.03 27.2991 119.507 26.2372C119.984 25.1752 120.656 24.3451 121.523 23.7468C122.404 23.1485 123.423 22.8494 124.579 22.8494C125.822 22.8494 126.899 23.141 127.809 23.7244C128.72 24.2927 129.428 25.0929 129.933 26.125C130.439 27.1571 130.692 28.3611 130.692 29.7372C130.692 31.1432 130.439 32.3547 129.933 33.3718C129.428 34.3889 128.712 35.1741 127.787 35.7276C126.862 36.281 125.771 36.5577 124.514 36.5577ZM124.818 33.5288C125.714 33.5288 126.422 33.1624 126.942 32.4295C127.477 31.6816 127.744 30.6944 127.744 29.4679C127.744 28.2265 127.477 27.2393 126.942 26.5064C126.422 25.7735 125.714 25.4071 124.818 25.4071C123.893 25.4071 123.163 25.7735 122.628 26.5064C122.093 27.2393 121.826 28.2265 121.826 29.4679C121.826 30.6944 122.093 31.6816 122.628 32.4295C123.163 33.1624 123.893 33.5288 124.818 33.5288Z" fill="#FF8C00"/>
<path d="M134.354 22.5801C134.744 22.5801 135.069 22.8194 135.329 23.2981C135.589 23.7618 135.77 24.5021 135.871 25.5192L135.416 25.9455C135.676 24.8985 136.16 24.0983 136.868 23.5449C137.576 22.9915 138.414 22.7147 139.383 22.7147C140.279 22.7147 141.074 22.9541 141.767 23.4327C142.461 23.9113 143.003 24.6368 143.393 25.609C143.798 26.5662 144 27.7703 144 29.2212C144 31.5694 143.588 33.3045 142.764 34.4263C141.955 35.5331 140.85 36.0865 139.448 36.0865C138.436 36.0865 137.641 35.8622 137.063 35.4135C136.485 34.9647 136.081 34.4188 135.849 33.7756L136.109 33.641C136.225 34.5385 136.319 35.4284 136.391 36.3109C136.478 37.1784 136.521 37.9412 136.521 38.5994C136.521 39.2724 136.406 39.8408 136.174 40.3045C135.943 40.7682 135.575 41 135.069 41C134.578 41 134.209 40.8056 133.963 40.4167C133.718 40.0278 133.537 39.5118 133.421 38.8686C133.335 38.2105 133.248 37.3654 133.161 36.3333C133.075 35.3013 133.002 34.187 132.945 32.9904C132.901 31.7938 132.88 30.6271 132.88 29.4904C132.88 28.3237 132.916 27.2318 132.988 26.2147C133.075 25.1827 133.176 24.3451 133.291 23.7019C133.393 23.328 133.523 23.0513 133.682 22.8718C133.855 22.6774 134.079 22.5801 134.354 22.5801ZM138.494 25.2949C137.714 25.2949 137.085 25.6987 136.608 26.5064C136.146 27.2991 135.914 28.3162 135.914 29.5577C135.914 30.8291 136.146 31.7788 136.608 32.4071C137.085 33.0353 137.699 33.3494 138.451 33.3494C139.318 33.3494 139.939 32.9979 140.315 32.2949C140.705 31.5769 140.9 30.6496 140.9 29.5128C140.9 28.062 140.662 27 140.185 26.3269C139.708 25.6389 139.144 25.2949 138.494 25.2949Z" fill="#FF8C00"/>
<path d="M4.76562 21.1738C6.68895 21.1739 8.30677 21.4924 9.61816 22.1289C10.944 22.751 11.949 23.6266 12.6338 24.7549C13.3187 25.8688 13.6611 27.1711 13.6611 28.6611C13.6611 29.9629 13.4281 31.1634 12.9619 32.2627C12.4956 33.3476 11.8254 34.2954 10.9512 35.1055C10.0915 35.901 9.05693 36.5232 7.84766 36.9717C6.65273 37.4057 5.31157 37.623 3.8252 37.623C2.90716 37.623 2.19264 37.565 1.68262 37.4492C1.18743 37.3335 0.844649 37.1742 0.655273 36.9717C0.466071 36.7548 0.364172 36.5161 0.349609 36.2559C0.349621 35.8508 0.590415 35.5112 1.07129 35.2363C1.51129 34.9922 2.27287 34.8275 3.35645 34.7432C3.23545 34.0953 3.1426 33.3627 3.08203 32.5449C3.00918 31.5612 2.97957 30.5414 2.99414 29.4854C3.00871 28.4293 3.06003 27.4236 3.14746 26.4688C3.22177 25.645 3.32521 24.9263 3.45215 24.3115C3.21552 24.3313 2.97568 24.3418 2.73242 24.3418C1.7998 24.3418 1.10701 24.2406 0.655273 24.0381C0.21857 23.8356 0.00011806 23.5538 0 23.1924C0 22.5559 0.386123 22.064 1.1582 21.7168C1.94511 21.3551 3.1481 21.1738 4.76562 21.1738ZM21.0762 23.5391C22.2564 23.5391 23.2692 23.8216 24.1143 24.3857C24.9594 24.95 25.6009 25.7744 26.0381 26.8594C26.417 27.7853 26.6864 28.82 26.8467 29.9629C27.0069 31.1057 27.0869 32.328 27.0869 33.6299C27.0869 34.6134 27.0355 35.3729 26.9336 35.9082C26.8316 36.4434 26.6717 36.8201 26.4531 37.0371C26.2491 37.2396 25.9718 37.3408 25.6221 37.3408C25.1268 37.3407 24.7841 37.1524 24.5947 36.7764C24.4522 36.4579 24.3592 35.9904 24.3135 35.374C23.4582 36.7276 21.98 37.4062 19.874 37.4062C18.8394 37.4062 17.9788 37.225 17.2939 36.8633C16.6093 36.4872 16.0998 35.9952 15.7646 35.3877C15.4441 34.7657 15.2833 34.0933 15.2832 33.3701C15.2832 32.1259 15.7204 31.1413 16.5947 30.418C17.469 29.6802 18.6277 29.3115 20.0703 29.3115C21.0173 29.3115 21.8406 29.4489 22.54 29.7236C23.0603 29.9281 23.5243 30.1931 23.9316 30.5176C23.8075 29.22 23.4988 28.2827 22.999 27.7061C22.4744 27.0695 21.7243 26.751 20.748 26.751C20.1797 26.751 19.6547 26.8381 19.1738 27.0117C18.6931 27.1853 18.2487 27.3657 17.8408 27.5537C17.4474 27.7273 17.0753 27.8145 16.7256 27.8145C16.376 27.8144 16.0994 27.6982 15.8955 27.4668C15.7061 27.2353 15.6113 26.9388 15.6113 26.5771C15.6114 26.0564 15.8591 25.5644 16.3545 25.1016C16.8645 24.6387 17.5348 24.2629 18.3652 23.9736C19.1959 23.6843 20.0998 23.5391 21.0762 23.5391ZM43.6807 19.9365C44.147 19.9365 44.4677 20.1178 44.6426 20.4795C44.832 20.8412 44.9268 21.3841 44.9268 22.1074C44.9267 22.7294 44.8902 23.511 44.8174 24.4512C44.7528 25.2847 44.6692 26.0895 44.5703 26.8662C45.0246 26.1053 45.5876 25.4808 46.2598 24.9932C47.0175 24.4434 47.8198 24.1689 48.665 24.1689C49.4079 24.169 50.0706 24.3495 50.6533 24.7109C51.1518 25.0079 51.5696 25.4537 51.9082 26.0469H51.4502C51.0952 26.0469 50.8078 26.3345 50.8076 26.6895C50.8076 27.0446 51.0951 27.333 51.4502 27.333H52.4648C52.6096 27.7782 52.7276 28.2641 52.8174 28.791C52.826 28.8409 52.8327 28.8908 52.8408 28.9404H52.415C52.0598 28.9404 51.7715 29.2288 51.7715 29.584C51.7715 29.9391 52.0599 30.2275 52.415 30.2275H53.0039C53.0393 30.6407 53.0586 31.0444 53.0586 31.4385C53.0586 32.7839 52.9638 33.8547 52.7744 34.6504C52.5996 35.4456 52.3516 36.0241 52.0312 36.3857C51.7108 36.7328 51.3315 36.9071 50.8945 36.9072C49.9765 36.9072 49.5166 36.1619 49.5166 34.6719C49.5166 33.9485 49.5531 33.2033 49.626 32.4365C49.7134 31.6699 49.7578 30.9685 49.7578 30.332C49.7578 29.247 49.5822 28.4367 49.2324 27.9014C48.8973 27.3517 48.4096 27.0762 47.7686 27.0762C46.9672 27.0762 46.3187 27.4309 45.8232 28.1396C45.3278 28.8485 45.0801 29.8252 45.0801 31.0693C45.0801 31.7204 45.1383 32.4365 45.2549 33.2178C45.3715 33.9845 45.4297 34.6867 45.4297 35.3232C45.4296 36.0316 45.2913 36.5451 45.0146 36.8633C44.7524 37.167 44.4097 37.3192 43.9873 37.3193C43.6669 37.3193 43.3824 37.2541 43.1348 37.124C42.9017 37.0083 42.6973 36.7697 42.5225 36.4082C42.3622 36.0321 42.224 35.4749 42.1074 34.7373C42.02 34.1731 41.9322 33.514 41.8447 32.7617C41.7573 32.0095 41.6843 31.221 41.626 30.3965C41.5677 29.5721 41.5173 28.7693 41.4736 27.9883C41.4445 27.1926 41.4297 26.4684 41.4297 25.8174C41.4297 23.7634 41.6261 22.2735 42.0195 21.3477C42.4129 20.4074 42.9667 19.9366 43.6807 19.9365ZM35.2832 23.5391C36.5801 23.5391 37.5127 23.7274 38.0811 24.1035C38.6494 24.4797 38.9336 24.9645 38.9336 25.5576C38.9336 25.9047 38.8101 26.1944 38.5625 26.4258C38.3294 26.6428 37.9938 26.751 37.5566 26.751C37.1049 26.751 36.6312 26.6859 36.1357 26.5557C35.655 26.4255 35.0941 26.3604 34.4531 26.3604C33.7099 26.3604 33.1553 26.5046 32.791 26.7939C32.4267 27.0833 32.2451 27.4529 32.2451 27.9014C32.2452 28.3207 32.4051 28.6535 32.7256 28.8994C33.0607 29.1309 33.6953 29.3042 34.6279 29.4199C35.6622 29.5356 36.5144 29.7241 37.1846 29.9844C37.8695 30.2303 38.3797 30.6069 38.7148 31.1133C39.0499 31.6051 39.2177 32.2846 39.2178 33.1523C39.2178 34.5267 38.7293 35.5474 37.7529 36.2129C36.7767 36.8781 35.429 37.2109 33.71 37.2109C32.6171 37.2109 31.7496 37.1238 31.1084 36.9502C30.4672 36.7766 30.0004 36.5312 29.709 36.2129C29.4321 35.8946 29.2939 35.518 29.2939 35.084C29.294 34.7079 29.4183 34.4183 29.666 34.2158C29.9282 33.999 30.2344 33.8906 30.584 33.8906C30.9189 33.8906 31.2757 33.9338 31.6543 34.0205C32.0332 34.0928 32.4348 34.173 32.8574 34.2598C33.2799 34.3465 33.7174 34.3896 34.1689 34.3896C35.6259 34.3896 36.3545 33.9408 36.3545 33.0439C36.3545 32.7403 36.2813 32.4946 36.1357 32.3066C35.99 32.1186 35.7275 31.9663 35.3486 31.8506C34.9698 31.7204 34.416 31.6192 33.6875 31.5469C32.8132 31.4601 32.0552 31.3158 31.4141 31.1133C30.7729 30.8963 30.2774 30.5487 29.9277 30.0713C29.578 29.5794 29.4033 28.9063 29.4033 28.0527C29.4034 26.7074 29.9136 25.6224 30.9336 24.7979C31.9536 23.9588 33.4035 23.5391 35.2832 23.5391ZM20.9883 31.5254C20.0994 31.5254 19.4214 31.6767 18.9551 31.9805C18.5034 32.2843 18.2783 32.69 18.2783 33.1963C18.2784 33.7459 18.4896 34.1728 18.9121 34.4766C19.3493 34.7658 19.9761 34.9102 20.792 34.9102C21.2727 34.9101 21.7606 34.845 22.2559 34.7148C22.7512 34.5702 23.1668 34.3608 23.502 34.0859C23.8371 33.8111 24.0049 33.4705 24.0049 33.0654C24.0048 32.7184 23.8587 32.4366 23.5674 32.2197C23.2906 31.9883 22.9192 31.8149 22.4531 31.6992C22.0014 31.5835 21.5129 31.5254 20.9883 31.5254ZM6.8418 24.0166C6.53578 24.0166 6.29498 24.2049 6.12012 24.5811C5.95987 24.9572 5.84336 25.5213 5.77051 26.2734C5.69765 27.0112 5.66114 27.9299 5.66113 29.0293C5.66113 30.7364 5.74897 32.0386 5.92383 32.9355C6.09865 33.8323 6.43348 34.281 6.92871 34.2812C7.42415 34.2812 7.9492 34.0859 8.50293 33.6953C9.07121 33.2903 9.55187 32.7042 9.94531 31.9375C10.3388 31.1563 10.5361 30.1937 10.5361 29.0508C10.5361 28.2119 10.4117 27.4813 10.1641 26.8594C9.93091 26.2229 9.62494 25.6949 9.24609 25.2754C8.86721 24.8558 8.46654 24.5443 8.04395 24.3418C7.62144 24.1249 7.2206 24.0166 6.8418 24.0166Z" fill="#FF8C00"/>
<defs>
<filter id="filter0_d_1393_3817" x="89" y="1" width="18" height="18" filterUnits="userSpaceOnUse" color-interpolation-filters="sRGB">
<feFlood flood-opacity="0" result="BackgroundImageFix"/>
<feColorMatrix in="SourceAlpha" type="matrix" values="0 0 0 0 0 0 0 0 0 0 0 0 0 0 0 0 0 0 127 0" result="hardAlpha"/>
<feOffset dy="4"/>
<feGaussianBlur stdDeviation="2"/>
<feComposite in2="hardAlpha" operator="out"/>
<feColorMatrix type="matrix" values="0 0 0 0 0.477012 0 0 0 0 0.477012 0 0 0 0 0.477012 0 0 0 0.25 0"/>
<feBlend mode="normal" in2="BackgroundImageFix" result="effect1_dropShadow_1393_3817"/>
<feBlend mode="normal" in="SourceGraphic" in2="effect1_dropShadow_1393_3817" result="shape"/>
</filter>
</defs>
</svg>
