<svg width="25" height="24" viewBox="0 0 25 24" fill="none" xmlns="http://www.w3.org/2000/svg">
<path d="M4.137 3.43402L12.877 12.005L4.202 20.655C4.06008 20.4702 3.9499 20.263 3.876 20.042C3.83778 19.7918 3.83778 19.5372 3.876 19.287V4.56702C3.85 4.17202 3.941 3.77702 4.136 3.43402M16.642 8.26702L13.789 11.093L5.153 2.60002C5.433 2.50302 5.733 2.47602 6.026 2.52202C6.486 2.64802 6.925 2.84202 7.328 3.09502L15.144 7.42002C15.652 7.69302 16.147 7.98002 16.642 8.26702ZM13.79 12.93L16.629 15.718L14.571 16.864L8.292 20.354C7.772 20.641 7.25 20.915 6.742 21.228C6.52463 21.3633 6.28089 21.4507 6.02705 21.4844C5.77321 21.518 5.51511 21.4971 5.27 21.423L13.79 12.93ZM21.15 12.005C21.1573 12.3547 21.0689 12.6997 20.8945 13.0028C20.72 13.306 20.466 13.5557 20.16 13.725L17.814 15.027L14.727 12.005L17.827 8.93102C18.622 9.37402 19.404 9.81702 20.185 10.234C20.4965 10.4081 20.7523 10.6668 20.9229 10.9802C21.0935 11.2936 21.1729 11.6489 21.15 12.005Z" fill="white"/>
</svg>
