<svg width="200" height="200" viewBox="0 0 200 200" fill="none" xmlns="http://www.w3.org/2000/svg">
<g clip-path="url(#clip0_1466_19274)">
<path d="M97.3436 161.031C91.3561 161.031 86.2519 162.922 82.0311 166.703C77.8019 170.491 75.6883 175.08 75.6904 180.472C75.6904 186.568 77.8258 191.354 82.0967 194.831C86.3811 198.309 91.3529 200.05 97.0561 200.05C102.852 200.05 107.911 198.331 112.234 194.894C116.555 191.465 118.713 186.658 118.709 180.475C118.709 175.083 116.646 170.494 112.519 166.706C108.383 162.921 103.325 161.029 97.3436 161.031ZM158.403 27.0813C152.915 18.7375 145.056 12.0469 135.028 7.22188C125.072 2.41875 113.472 0 100.528 0C86.6029 0 74.2123 2.90937 63.7123 8.65625C53.1904 14.4 45.0811 21.775 39.5748 30.5938C34.0311 39.4406 31.2373 48.3344 31.2373 57.0344C31.2373 61.6906 33.1623 66.025 36.9592 69.9219C40.7748 73.8406 45.5248 75.8281 51.0686 75.8281C60.5061 75.8281 66.9748 70.2656 70.2592 59.3875C73.2498 50.3656 76.9342 43.5 81.1967 38.9469C85.2092 34.6594 91.7154 32.4906 100.531 32.4906C108.134 32.4906 114.131 34.6219 118.89 39.0094C123.578 43.3469 125.856 48.5219 125.856 54.8156C125.884 57.8632 125.116 60.8654 123.628 63.525C122.047 66.3654 120.078 68.9717 117.778 71.2688C115.34 73.7062 111.322 77.3844 105.828 82.1844C99.4279 87.7937 94.2623 92.7219 90.4904 96.7875C86.5046 101.143 83.3012 106.154 81.0217 111.6C78.6436 117.238 77.4404 123.95 77.4404 131.559C77.4404 138.062 79.2529 143.097 82.8373 146.528C86.3842 149.934 90.7998 151.663 95.9717 151.663C105.859 151.663 112.069 146.259 113.912 136.153C114.869 131.95 115.565 129.013 116.037 127.334C116.465 125.816 117.084 124.259 117.881 122.703C118.653 121.197 119.878 119.481 121.519 117.594C123.234 115.622 125.569 113.294 128.415 110.697C139.069 101.178 146.581 94.2812 150.75 90.2C155.05 85.9844 158.8 80.9375 161.909 75.1813C165.084 69.275 166.7 62.3406 166.7 54.5625C166.694 44.7062 163.9 35.4688 158.384 27.0906" fill="#D1D2D2"/>
</g>
<defs>
<clipPath id="clip0_1466_19274">
<rect width="200" height="200" fill="white"/>
</clipPath>
</defs>
</svg>
