<svg width="20" height="20" viewBox="0 0 20 20" fill="none" xmlns="http://www.w3.org/2000/svg">
<path fill-rule="evenodd" clip-rule="evenodd" d="M4.54166 3.85234C5.83083 2.47817 7.69999 1.6665 10.0142 1.6665C13.8183 1.6665 16.3408 3.859 17.1392 6.89734C17.1953 7.11117 17.1642 7.33854 17.0527 7.52944C16.9412 7.72033 16.7584 7.85912 16.5446 7.91525C16.3307 7.97139 16.1034 7.94029 15.9125 7.82878C15.7216 7.71727 15.5828 7.5345 15.5267 7.32067C14.9208 5.01817 13.0633 3.33317 10.0133 3.33317C8.10833 3.33317 6.69666 3.99067 5.75833 4.9915C4.81166 6.0015 4.28416 7.42734 4.28416 9.06234V10.9373C4.28416 12.5723 4.81166 13.9982 5.75833 15.0073C6.69666 16.0098 8.10833 16.6665 10.0133 16.6665C11.3925 16.6665 12.4867 16.3465 13.3267 15.829C14.1725 15.3082 14.6767 14.6173 14.8183 13.8248C14.9808 12.9115 14.7808 12.2848 14.4367 11.8323C14.2479 11.5889 14.0184 11.3799 13.7583 11.2148C13.6458 11.839 13.445 12.4282 13.1417 12.8898C12.0233 14.589 9.88499 14.7348 8.47499 14.1723C7.71166 13.8682 7.05749 13.0357 6.85416 12.1432C6.73071 11.6316 6.77183 11.0942 6.97166 10.6073C7.19249 10.0773 7.60166 9.62567 8.18416 9.28234C8.76083 8.9415 9.61749 8.78484 10.4667 8.7615C10.9783 8.74734 11.5333 8.7815 12.0917 8.87234C11.975 8.33067 11.7775 7.9265 11.555 7.719C11.1517 7.344 10.4833 7.07984 9.81333 7.084C9.16583 7.089 8.61666 7.33817 8.28833 7.86317C8.17119 8.05059 7.9844 8.1838 7.76904 8.2335C7.55369 8.2832 7.32741 8.24531 7.13999 8.12817C6.95257 8.01103 6.81936 7.82424 6.76966 7.60889C6.71997 7.39353 6.75786 7.16726 6.87499 6.97984C7.57249 5.86484 8.72166 5.42567 9.80249 5.41734C10.8608 5.40984 11.9508 5.81067 12.6908 6.499C13.4392 7.19567 13.7608 8.33817 13.8442 9.37734C14.5725 9.69484 15.2608 10.1607 15.765 10.8248C16.4158 11.6832 16.6958 12.7898 16.4592 14.1173C16.2175 15.4707 15.3633 16.5323 14.2008 17.2482C13.0608 17.9498 11.6542 18.3332 10.0133 18.3332C7.69999 18.3332 5.82999 17.5215 4.54249 16.1473C3.26249 14.7823 2.61749 12.9273 2.61749 10.9373V9.06234C2.61749 7.07234 3.26249 5.21734 4.54249 3.85234H4.54166ZM12.1667 10.5832C11.6231 10.466 11.0675 10.4139 10.5117 10.4282C9.76916 10.4482 9.24833 10.589 9.03083 10.7173C8.71083 10.9065 8.57249 11.099 8.51083 11.2482C8.44503 11.4154 8.43395 11.5992 8.47916 11.7732C8.58083 12.2198 8.91666 12.5548 9.09249 12.624C10.0308 12.999 11.205 12.8007 11.7492 11.974C11.945 11.6757 12.1008 11.174 12.1658 10.5832H12.1667Z" fill="#272727"/>
</svg>
